<mxfile host="Electron" agent="Mozilla/5.0 (Macintosh; Intel Mac OS X 10_15_7) AppleWebKit/537.36 (KHTML, like Gecko) draw.io/25.0.2 Chrome/128.0.6613.186 Electron/32.2.5 Safari/537.36" version="25.0.2">
  <diagram name="Страница — 1" id="re-0MD3bLfW7PuqOYIEU">
    <mxGraphModel dx="1804" dy="1877" grid="1" gridSize="10" guides="1" tooltips="1" connect="1" arrows="1" fold="1" page="1" pageScale="1" pageWidth="827" pageHeight="1169" math="0" shadow="0">
      <root>
        <mxCell id="0" />
        <mxCell id="1" parent="0" />
        <mxCell id="59dFEwwqqe-RQWfW4AhT-1" value="Безопасность&lt;div&gt;данных&lt;/div&gt;" style="rounded=1;whiteSpace=wrap;html=1;fillColor=#d5e8d4;strokeColor=#82b366;" vertex="1" parent="1">
          <mxGeometry x="430" y="315" width="120" height="60" as="geometry" />
        </mxCell>
        <mxCell id="59dFEwwqqe-RQWfW4AhT-2" style="edgeStyle=orthogonalEdgeStyle;rounded=0;orthogonalLoop=1;jettySize=auto;html=1;entryX=0.5;entryY=1;entryDx=0;entryDy=0;" edge="1" parent="1" source="59dFEwwqqe-RQWfW4AhT-3" target="59dFEwwqqe-RQWfW4AhT-1">
          <mxGeometry relative="1" as="geometry" />
        </mxCell>
        <mxCell id="59dFEwwqqe-RQWfW4AhT-3" value="Публичные&lt;div&gt;данные&lt;/div&gt;" style="rounded=1;whiteSpace=wrap;html=1;fillColor=#dae8fc;strokeColor=#6c8ebf;" vertex="1" parent="1">
          <mxGeometry x="430" y="411" width="120" height="60" as="geometry" />
        </mxCell>
        <mxCell id="59dFEwwqqe-RQWfW4AhT-4" style="edgeStyle=orthogonalEdgeStyle;rounded=0;orthogonalLoop=1;jettySize=auto;html=1;entryX=0.5;entryY=0;entryDx=0;entryDy=0;" edge="1" parent="1" source="59dFEwwqqe-RQWfW4AhT-5" target="59dFEwwqqe-RQWfW4AhT-1">
          <mxGeometry relative="1" as="geometry" />
        </mxCell>
        <mxCell id="59dFEwwqqe-RQWfW4AhT-5" value="Внутренние&lt;div&gt;данные&lt;/div&gt;" style="rounded=1;whiteSpace=wrap;html=1;fillColor=#dae8fc;strokeColor=#6c8ebf;" vertex="1" parent="1">
          <mxGeometry x="430" y="215.5" width="120" height="60" as="geometry" />
        </mxCell>
        <mxCell id="59dFEwwqqe-RQWfW4AhT-6" style="edgeStyle=orthogonalEdgeStyle;rounded=0;orthogonalLoop=1;jettySize=auto;html=1;entryX=1;entryY=0.25;entryDx=0;entryDy=0;exitX=0.25;exitY=1;exitDx=0;exitDy=0;" edge="1" parent="1" source="59dFEwwqqe-RQWfW4AhT-7" target="59dFEwwqqe-RQWfW4AhT-1">
          <mxGeometry relative="1" as="geometry" />
        </mxCell>
        <mxCell id="59dFEwwqqe-RQWfW4AhT-7" value="Конфиденциальные&lt;div&gt;данные&lt;/div&gt;" style="rounded=1;whiteSpace=wrap;html=1;fillColor=#dae8fc;strokeColor=#6c8ebf;" vertex="1" parent="1">
          <mxGeometry x="570" y="155" width="120" height="60" as="geometry" />
        </mxCell>
        <mxCell id="59dFEwwqqe-RQWfW4AhT-8" style="edgeStyle=orthogonalEdgeStyle;rounded=0;orthogonalLoop=1;jettySize=auto;html=1;entryX=1;entryY=0.75;entryDx=0;entryDy=0;exitX=0.25;exitY=0;exitDx=0;exitDy=0;" edge="1" parent="1" source="59dFEwwqqe-RQWfW4AhT-9" target="59dFEwwqqe-RQWfW4AhT-1">
          <mxGeometry relative="1" as="geometry" />
        </mxCell>
        <mxCell id="59dFEwwqqe-RQWfW4AhT-9" value="Секретные&lt;div&gt;данные&lt;/div&gt;" style="rounded=1;whiteSpace=wrap;html=1;fillColor=#dae8fc;strokeColor=#6c8ebf;" vertex="1" parent="1">
          <mxGeometry x="570" y="849" width="120" height="60" as="geometry" />
        </mxCell>
        <mxCell id="59dFEwwqqe-RQWfW4AhT-10" style="edgeStyle=orthogonalEdgeStyle;rounded=0;orthogonalLoop=1;jettySize=auto;html=1;exitX=1;exitY=0.5;exitDx=0;exitDy=0;entryX=0.5;entryY=1;entryDx=0;entryDy=0;" edge="1" parent="1" source="59dFEwwqqe-RQWfW4AhT-15" target="59dFEwwqqe-RQWfW4AhT-3">
          <mxGeometry relative="1" as="geometry">
            <mxPoint x="110" y="523" as="sourcePoint" />
          </mxGeometry>
        </mxCell>
        <mxCell id="59dFEwwqqe-RQWfW4AhT-11" style="edgeStyle=orthogonalEdgeStyle;rounded=0;orthogonalLoop=1;jettySize=auto;html=1;exitX=1;exitY=0.5;exitDx=0;exitDy=0;entryX=0.25;entryY=1;entryDx=0;entryDy=0;" edge="1" parent="1" source="59dFEwwqqe-RQWfW4AhT-14" target="59dFEwwqqe-RQWfW4AhT-3">
          <mxGeometry relative="1" as="geometry">
            <mxPoint x="135" y="308" as="sourcePoint" />
          </mxGeometry>
        </mxCell>
        <mxCell id="59dFEwwqqe-RQWfW4AhT-12" style="edgeStyle=orthogonalEdgeStyle;rounded=0;orthogonalLoop=1;jettySize=auto;html=1;exitX=0;exitY=0.5;exitDx=0;exitDy=0;entryX=1;entryY=0.75;entryDx=0;entryDy=0;" edge="1" parent="1" source="59dFEwwqqe-RQWfW4AhT-13" target="59dFEwwqqe-RQWfW4AhT-9">
          <mxGeometry relative="1" as="geometry">
            <mxPoint x="740" y="1130" as="targetPoint" />
          </mxGeometry>
        </mxCell>
        <mxCell id="59dFEwwqqe-RQWfW4AhT-13" value="Данные для проведения онлайн сделок по недвижимости" style="rounded=1;whiteSpace=wrap;html=1;fillColor=#fff2cc;strokeColor=#d6b656;" vertex="1" parent="1">
          <mxGeometry x="870" y="961" width="120" height="60" as="geometry" />
        </mxCell>
        <mxCell id="59dFEwwqqe-RQWfW4AhT-14" value="Онлайн-туры" style="rounded=1;whiteSpace=wrap;html=1;fillColor=#fff2cc;strokeColor=#d6b656;" vertex="1" parent="1">
          <mxGeometry x="295" y="471" width="120" height="72" as="geometry" />
        </mxCell>
        <mxCell id="59dFEwwqqe-RQWfW4AhT-15" value="Онлайн витрины" style="rounded=1;whiteSpace=wrap;html=1;fillColor=#fff2cc;strokeColor=#d6b656;" vertex="1" parent="1">
          <mxGeometry x="295" y="778" width="120" height="60" as="geometry" />
        </mxCell>
        <mxCell id="59dFEwwqqe-RQWfW4AhT-16" style="edgeStyle=orthogonalEdgeStyle;rounded=0;orthogonalLoop=1;jettySize=auto;html=1;exitX=0;exitY=0.5;exitDx=0;exitDy=0;" edge="1" parent="1" source="59dFEwwqqe-RQWfW4AhT-17" target="59dFEwwqqe-RQWfW4AhT-7">
          <mxGeometry relative="1" as="geometry" />
        </mxCell>
        <mxCell id="59dFEwwqqe-RQWfW4AhT-17" value="Оплата услуг ЖКХ" style="rounded=1;whiteSpace=wrap;html=1;fillColor=#fff2cc;strokeColor=#d6b656;" vertex="1" parent="1">
          <mxGeometry x="870" y="-88" width="120" height="60" as="geometry" />
        </mxCell>
        <mxCell id="59dFEwwqqe-RQWfW4AhT-277" style="edgeStyle=orthogonalEdgeStyle;rounded=0;orthogonalLoop=1;jettySize=auto;html=1;exitX=0.75;exitY=0;exitDx=0;exitDy=0;entryX=0.75;entryY=1;entryDx=0;entryDy=0;" edge="1" parent="1" source="59dFEwwqqe-RQWfW4AhT-19" target="59dFEwwqqe-RQWfW4AhT-3">
          <mxGeometry relative="1" as="geometry" />
        </mxCell>
        <mxCell id="59dFEwwqqe-RQWfW4AhT-19" value="Данные от управляющих компаний" style="rounded=1;whiteSpace=wrap;html=1;fillColor=#fff2cc;strokeColor=#d6b656;" vertex="1" parent="1">
          <mxGeometry x="430" y="895" width="120" height="60" as="geometry" />
        </mxCell>
        <mxCell id="59dFEwwqqe-RQWfW4AhT-20" style="edgeStyle=orthogonalEdgeStyle;rounded=0;orthogonalLoop=1;jettySize=auto;html=1;exitX=0;exitY=0.5;exitDx=0;exitDy=0;entryX=1;entryY=0.75;entryDx=0;entryDy=0;" edge="1" parent="1" source="59dFEwwqqe-RQWfW4AhT-21" target="59dFEwwqqe-RQWfW4AhT-7">
          <mxGeometry relative="1" as="geometry">
            <Array as="points">
              <mxPoint x="870" y="290" />
              <mxPoint x="790" y="290" />
              <mxPoint x="790" y="200" />
            </Array>
          </mxGeometry>
        </mxCell>
        <mxCell id="59dFEwwqqe-RQWfW4AhT-21" value="Умный дом" style="rounded=1;whiteSpace=wrap;html=1;fillColor=#fff2cc;strokeColor=#d6b656;" vertex="1" parent="1">
          <mxGeometry x="880" y="260" width="120" height="60" as="geometry" />
        </mxCell>
        <mxCell id="59dFEwwqqe-RQWfW4AhT-319" style="edgeStyle=orthogonalEdgeStyle;rounded=0;orthogonalLoop=1;jettySize=auto;html=1;exitX=0;exitY=0.5;exitDx=0;exitDy=0;entryX=0.5;entryY=1;entryDx=0;entryDy=0;" edge="1" parent="1" source="59dFEwwqqe-RQWfW4AhT-23" target="59dFEwwqqe-RQWfW4AhT-7">
          <mxGeometry relative="1" as="geometry">
            <mxPoint x="630" y="250" as="targetPoint" />
          </mxGeometry>
        </mxCell>
        <mxCell id="59dFEwwqqe-RQWfW4AhT-23" value="Данные для входа в системы менеджеров" style="rounded=1;whiteSpace=wrap;html=1;fillColor=#fff2cc;strokeColor=#d6b656;" vertex="1" parent="1">
          <mxGeometry x="860" y="595" width="120" height="60" as="geometry" />
        </mxCell>
        <mxCell id="59dFEwwqqe-RQWfW4AhT-25" value="Данные пользователей" style="rounded=1;whiteSpace=wrap;html=1;fillColor=#fff2cc;strokeColor=#d6b656;" vertex="1" parent="1">
          <mxGeometry x="880" y="400" width="120" height="60" as="geometry" />
        </mxCell>
        <mxCell id="59dFEwwqqe-RQWfW4AhT-26" style="edgeStyle=orthogonalEdgeStyle;rounded=0;orthogonalLoop=1;jettySize=auto;html=1;exitX=0;exitY=0.5;exitDx=0;exitDy=0;entryX=1;entryY=0.5;entryDx=0;entryDy=0;" edge="1" parent="1" source="59dFEwwqqe-RQWfW4AhT-27" target="59dFEwwqqe-RQWfW4AhT-9">
          <mxGeometry relative="1" as="geometry" />
        </mxCell>
        <mxCell id="59dFEwwqqe-RQWfW4AhT-27" value="Данные для работы с платежными системами" style="rounded=1;whiteSpace=wrap;html=1;fillColor=#fff2cc;strokeColor=#d6b656;" vertex="1" parent="1">
          <mxGeometry x="880" y="797" width="120" height="60" as="geometry" />
        </mxCell>
        <mxCell id="59dFEwwqqe-RQWfW4AhT-28" value="" style="edgeStyle=orthogonalEdgeStyle;rounded=0;orthogonalLoop=1;jettySize=auto;html=1;" edge="1" parent="1" source="59dFEwwqqe-RQWfW4AhT-29" target="59dFEwwqqe-RQWfW4AhT-5">
          <mxGeometry relative="1" as="geometry">
            <Array as="points">
              <mxPoint x="430" y="253" />
              <mxPoint x="430" y="253" />
            </Array>
          </mxGeometry>
        </mxCell>
        <mxCell id="59dFEwwqqe-RQWfW4AhT-29" value="Данные для аналитики BI" style="rounded=1;whiteSpace=wrap;html=1;fillColor=#fff2cc;strokeColor=#d6b656;" vertex="1" parent="1">
          <mxGeometry x="290" y="223" width="120" height="60" as="geometry" />
        </mxCell>
        <mxCell id="59dFEwwqqe-RQWfW4AhT-32" style="edgeStyle=orthogonalEdgeStyle;rounded=0;orthogonalLoop=1;jettySize=auto;html=1;exitX=1;exitY=0.5;exitDx=0;exitDy=0;entryX=0;entryY=0.25;entryDx=0;entryDy=0;" edge="1" parent="1" source="59dFEwwqqe-RQWfW4AhT-33" target="59dFEwwqqe-RQWfW4AhT-29">
          <mxGeometry relative="1" as="geometry" />
        </mxCell>
        <mxCell id="59dFEwwqqe-RQWfW4AhT-33" value="Утечка" style="rounded=1;whiteSpace=wrap;html=1;fillColor=#f8cecc;strokeColor=#b85450;" vertex="1" parent="1">
          <mxGeometry x="70" y="136" width="120" height="60" as="geometry" />
        </mxCell>
        <mxCell id="59dFEwwqqe-RQWfW4AhT-34" style="edgeStyle=orthogonalEdgeStyle;rounded=0;orthogonalLoop=1;jettySize=auto;html=1;exitX=1;exitY=0.5;exitDx=0;exitDy=0;entryX=0;entryY=0.5;entryDx=0;entryDy=0;" edge="1" parent="1" source="59dFEwwqqe-RQWfW4AhT-35" target="59dFEwwqqe-RQWfW4AhT-33">
          <mxGeometry relative="1" as="geometry" />
        </mxCell>
        <mxCell id="59dFEwwqqe-RQWfW4AhT-35" value="Значительный" style="rounded=1;whiteSpace=wrap;html=1;fillColor=#e1d5e7;strokeColor=#9673a6;" vertex="1" parent="1">
          <mxGeometry x="-130" y="83" width="120" height="60" as="geometry" />
        </mxCell>
        <mxCell id="59dFEwwqqe-RQWfW4AhT-36" style="edgeStyle=orthogonalEdgeStyle;rounded=0;orthogonalLoop=1;jettySize=auto;html=1;exitX=1;exitY=0.5;exitDx=0;exitDy=0;entryX=0;entryY=0.5;entryDx=0;entryDy=0;" edge="1" parent="1" source="59dFEwwqqe-RQWfW4AhT-37" target="59dFEwwqqe-RQWfW4AhT-35">
          <mxGeometry relative="1" as="geometry" />
        </mxCell>
        <mxCell id="59dFEwwqqe-RQWfW4AhT-37" value="Утечка данных аналитиков BI повлечет за собой репутационные потери, денежные потери по продаже результатов аналитики&amp;nbsp;" style="rounded=1;whiteSpace=wrap;html=1;" vertex="1" parent="1">
          <mxGeometry x="-430" y="78" width="200" height="70" as="geometry" />
        </mxCell>
        <mxCell id="59dFEwwqqe-RQWfW4AhT-38" style="edgeStyle=orthogonalEdgeStyle;rounded=0;orthogonalLoop=1;jettySize=auto;html=1;exitX=1;exitY=0.5;exitDx=0;exitDy=0;entryX=0;entryY=0.5;entryDx=0;entryDy=0;" edge="1" parent="1" source="59dFEwwqqe-RQWfW4AhT-39" target="59dFEwwqqe-RQWfW4AhT-29">
          <mxGeometry relative="1" as="geometry" />
        </mxCell>
        <mxCell id="59dFEwwqqe-RQWfW4AhT-39" value="Потеря" style="rounded=1;whiteSpace=wrap;html=1;fillColor=#f8cecc;strokeColor=#b85450;" vertex="1" parent="1">
          <mxGeometry x="70" y="218" width="120" height="60" as="geometry" />
        </mxCell>
        <mxCell id="59dFEwwqqe-RQWfW4AhT-40" style="edgeStyle=orthogonalEdgeStyle;rounded=0;orthogonalLoop=1;jettySize=auto;html=1;exitX=1;exitY=0.5;exitDx=0;exitDy=0;entryX=0;entryY=0.5;entryDx=0;entryDy=0;" edge="1" parent="1" source="59dFEwwqqe-RQWfW4AhT-41" target="59dFEwwqqe-RQWfW4AhT-39">
          <mxGeometry relative="1" as="geometry" />
        </mxCell>
        <mxCell id="59dFEwwqqe-RQWfW4AhT-41" value="Значительный" style="rounded=1;whiteSpace=wrap;html=1;fillColor=#e1d5e7;strokeColor=#9673a6;" vertex="1" parent="1">
          <mxGeometry x="-130" y="173" width="120" height="60" as="geometry" />
        </mxCell>
        <mxCell id="59dFEwwqqe-RQWfW4AhT-42" style="edgeStyle=orthogonalEdgeStyle;rounded=0;orthogonalLoop=1;jettySize=auto;html=1;exitX=1;exitY=0.5;exitDx=0;exitDy=0;entryX=0;entryY=0.75;entryDx=0;entryDy=0;" edge="1" parent="1" source="59dFEwwqqe-RQWfW4AhT-43" target="59dFEwwqqe-RQWfW4AhT-29">
          <mxGeometry relative="1" as="geometry" />
        </mxCell>
        <mxCell id="59dFEwwqqe-RQWfW4AhT-43" value="Искажение" style="rounded=1;whiteSpace=wrap;html=1;fillColor=#f8cecc;strokeColor=#b85450;" vertex="1" parent="1">
          <mxGeometry x="70" y="301" width="120" height="60" as="geometry" />
        </mxCell>
        <mxCell id="59dFEwwqqe-RQWfW4AhT-44" style="edgeStyle=orthogonalEdgeStyle;rounded=0;orthogonalLoop=1;jettySize=auto;html=1;exitX=1;exitY=0.5;exitDx=0;exitDy=0;entryX=0;entryY=0.5;entryDx=0;entryDy=0;" edge="1" parent="1" source="59dFEwwqqe-RQWfW4AhT-45" target="59dFEwwqqe-RQWfW4AhT-43">
          <mxGeometry relative="1" as="geometry" />
        </mxCell>
        <mxCell id="59dFEwwqqe-RQWfW4AhT-45" value="Значительный" style="rounded=1;whiteSpace=wrap;html=1;fillColor=#e1d5e7;strokeColor=#9673a6;" vertex="1" parent="1">
          <mxGeometry x="-130" y="263" width="120" height="60" as="geometry" />
        </mxCell>
        <mxCell id="59dFEwwqqe-RQWfW4AhT-46" style="edgeStyle=orthogonalEdgeStyle;rounded=0;orthogonalLoop=1;jettySize=auto;html=1;exitX=1;exitY=0.5;exitDx=0;exitDy=0;entryX=0;entryY=0.5;entryDx=0;entryDy=0;" edge="1" parent="1" source="59dFEwwqqe-RQWfW4AhT-49" target="59dFEwwqqe-RQWfW4AhT-45">
          <mxGeometry relative="1" as="geometry">
            <Array as="points">
              <mxPoint x="-160" y="233" />
              <mxPoint x="-160" y="293" />
            </Array>
          </mxGeometry>
        </mxCell>
        <mxCell id="59dFEwwqqe-RQWfW4AhT-47" style="edgeStyle=orthogonalEdgeStyle;rounded=0;orthogonalLoop=1;jettySize=auto;html=1;exitX=1;exitY=0.75;exitDx=0;exitDy=0;entryX=0.003;entryY=0.4;entryDx=0;entryDy=0;entryPerimeter=0;" edge="1" parent="1" source="59dFEwwqqe-RQWfW4AhT-49" target="59dFEwwqqe-RQWfW4AhT-53">
          <mxGeometry relative="1" as="geometry">
            <mxPoint x="-130" y="383" as="targetPoint" />
          </mxGeometry>
        </mxCell>
        <mxCell id="59dFEwwqqe-RQWfW4AhT-48" style="edgeStyle=orthogonalEdgeStyle;rounded=0;orthogonalLoop=1;jettySize=auto;html=1;exitX=1;exitY=0.25;exitDx=0;exitDy=0;entryX=0;entryY=0.5;entryDx=0;entryDy=0;" edge="1" parent="1" source="59dFEwwqqe-RQWfW4AhT-49" target="59dFEwwqqe-RQWfW4AhT-41">
          <mxGeometry relative="1" as="geometry" />
        </mxCell>
        <mxCell id="59dFEwwqqe-RQWfW4AhT-49" value="Потеря качества аналитики, репутационные и денежные потери от клиентов" style="rounded=1;whiteSpace=wrap;html=1;" vertex="1" parent="1">
          <mxGeometry x="-410" y="203" width="160" height="60" as="geometry" />
        </mxCell>
        <mxCell id="59dFEwwqqe-RQWfW4AhT-50" style="edgeStyle=orthogonalEdgeStyle;rounded=0;orthogonalLoop=1;jettySize=auto;html=1;exitX=1;exitY=0.5;exitDx=0;exitDy=0;entryX=0.25;entryY=1;entryDx=0;entryDy=0;" edge="1" parent="1" target="59dFEwwqqe-RQWfW4AhT-29">
          <mxGeometry relative="1" as="geometry">
            <mxPoint x="190" y="413" as="sourcePoint" />
          </mxGeometry>
        </mxCell>
        <mxCell id="59dFEwwqqe-RQWfW4AhT-51" value="Некачественные данные" style="rounded=1;whiteSpace=wrap;html=1;fillColor=#f8cecc;strokeColor=#b85450;" vertex="1" parent="1">
          <mxGeometry x="70" y="384" width="120" height="60" as="geometry" />
        </mxCell>
        <mxCell id="59dFEwwqqe-RQWfW4AhT-52" style="edgeStyle=orthogonalEdgeStyle;rounded=0;orthogonalLoop=1;jettySize=auto;html=1;exitX=1;exitY=0.5;exitDx=0;exitDy=0;" edge="1" parent="1" source="59dFEwwqqe-RQWfW4AhT-53">
          <mxGeometry relative="1" as="geometry">
            <mxPoint x="70" y="413" as="targetPoint" />
            <mxPoint x="-10" y="383" as="sourcePoint" />
          </mxGeometry>
        </mxCell>
        <mxCell id="59dFEwwqqe-RQWfW4AhT-53" value="Значительный" style="rounded=1;whiteSpace=wrap;html=1;fillColor=#e1d5e7;strokeColor=#9673a6;" vertex="1" parent="1">
          <mxGeometry x="-120" y="359" width="120" height="60" as="geometry" />
        </mxCell>
        <mxCell id="59dFEwwqqe-RQWfW4AhT-54" style="edgeStyle=orthogonalEdgeStyle;rounded=0;orthogonalLoop=1;jettySize=auto;html=1;exitX=1;exitY=0.5;exitDx=0;exitDy=0;entryX=0.25;entryY=1;entryDx=0;entryDy=0;" edge="1" parent="1" source="59dFEwwqqe-RQWfW4AhT-55" target="59dFEwwqqe-RQWfW4AhT-14">
          <mxGeometry relative="1" as="geometry" />
        </mxCell>
        <mxCell id="59dFEwwqqe-RQWfW4AhT-55" value="Некачественные данные" style="rounded=1;whiteSpace=wrap;html=1;fillColor=#f8cecc;strokeColor=#b85450;" vertex="1" parent="1">
          <mxGeometry x="75" y="696" width="120" height="60" as="geometry" />
        </mxCell>
        <mxCell id="59dFEwwqqe-RQWfW4AhT-56" style="edgeStyle=orthogonalEdgeStyle;rounded=0;orthogonalLoop=1;jettySize=auto;html=1;exitX=1;exitY=0.5;exitDx=0;exitDy=0;entryX=0;entryY=0.75;entryDx=0;entryDy=0;" edge="1" parent="1" source="59dFEwwqqe-RQWfW4AhT-57" target="59dFEwwqqe-RQWfW4AhT-14">
          <mxGeometry relative="1" as="geometry">
            <Array as="points">
              <mxPoint x="275" y="646" />
              <mxPoint x="275" y="526" />
            </Array>
          </mxGeometry>
        </mxCell>
        <mxCell id="59dFEwwqqe-RQWfW4AhT-57" value="Искажение" style="rounded=1;whiteSpace=wrap;html=1;fillColor=#f8cecc;strokeColor=#b85450;" vertex="1" parent="1">
          <mxGeometry x="75" y="617" width="120" height="60" as="geometry" />
        </mxCell>
        <mxCell id="59dFEwwqqe-RQWfW4AhT-58" style="edgeStyle=orthogonalEdgeStyle;rounded=0;orthogonalLoop=1;jettySize=auto;html=1;exitX=1;exitY=0.5;exitDx=0;exitDy=0;entryX=0;entryY=0.5;entryDx=0;entryDy=0;" edge="1" parent="1" source="59dFEwwqqe-RQWfW4AhT-59" target="59dFEwwqqe-RQWfW4AhT-14">
          <mxGeometry relative="1" as="geometry" />
        </mxCell>
        <mxCell id="59dFEwwqqe-RQWfW4AhT-59" value="Потеря" style="rounded=1;whiteSpace=wrap;html=1;fillColor=#f8cecc;strokeColor=#b85450;" vertex="1" parent="1">
          <mxGeometry x="75" y="539" width="120" height="60" as="geometry" />
        </mxCell>
        <mxCell id="59dFEwwqqe-RQWfW4AhT-60" style="edgeStyle=orthogonalEdgeStyle;rounded=0;orthogonalLoop=1;jettySize=auto;html=1;exitX=1;exitY=0.5;exitDx=0;exitDy=0;entryX=0;entryY=0.25;entryDx=0;entryDy=0;" edge="1" parent="1" source="59dFEwwqqe-RQWfW4AhT-61" target="59dFEwwqqe-RQWfW4AhT-14">
          <mxGeometry relative="1" as="geometry" />
        </mxCell>
        <mxCell id="59dFEwwqqe-RQWfW4AhT-61" value="Утечка" style="rounded=1;whiteSpace=wrap;html=1;fillColor=#f8cecc;strokeColor=#b85450;" vertex="1" parent="1">
          <mxGeometry x="75" y="460" width="120" height="60" as="geometry" />
        </mxCell>
        <mxCell id="59dFEwwqqe-RQWfW4AhT-62" style="edgeStyle=orthogonalEdgeStyle;rounded=0;orthogonalLoop=1;jettySize=auto;html=1;exitX=1;exitY=0.5;exitDx=0;exitDy=0;entryX=0;entryY=0.5;entryDx=0;entryDy=0;" edge="1" parent="1" source="59dFEwwqqe-RQWfW4AhT-63" target="59dFEwwqqe-RQWfW4AhT-61">
          <mxGeometry relative="1" as="geometry" />
        </mxCell>
        <mxCell id="59dFEwwqqe-RQWfW4AhT-275" style="edgeStyle=orthogonalEdgeStyle;rounded=0;orthogonalLoop=1;jettySize=auto;html=1;exitX=0;exitY=0.5;exitDx=0;exitDy=0;startArrow=classic;startFill=1;endArrow=none;endFill=0;" edge="1" parent="1" source="59dFEwwqqe-RQWfW4AhT-63">
          <mxGeometry relative="1" as="geometry">
            <mxPoint x="-194.80952380952385" y="568.1904761904761" as="targetPoint" />
          </mxGeometry>
        </mxCell>
        <mxCell id="59dFEwwqqe-RQWfW4AhT-63" value="Значительный" style="rounded=1;whiteSpace=wrap;html=1;fillColor=#e1d5e7;strokeColor=#9673a6;" vertex="1" parent="1">
          <mxGeometry x="-125" y="460" width="120" height="60" as="geometry" />
        </mxCell>
        <mxCell id="59dFEwwqqe-RQWfW4AhT-66" style="edgeStyle=orthogonalEdgeStyle;rounded=0;orthogonalLoop=1;jettySize=auto;html=1;exitX=1;exitY=0.5;exitDx=0;exitDy=0;" edge="1" parent="1" source="59dFEwwqqe-RQWfW4AhT-67" target="59dFEwwqqe-RQWfW4AhT-59">
          <mxGeometry relative="1" as="geometry" />
        </mxCell>
        <mxCell id="59dFEwwqqe-RQWfW4AhT-67" value="Значительный" style="rounded=1;whiteSpace=wrap;html=1;fillColor=#e1d5e7;strokeColor=#9673a6;" vertex="1" parent="1">
          <mxGeometry x="-125" y="539" width="120" height="60" as="geometry" />
        </mxCell>
        <mxCell id="59dFEwwqqe-RQWfW4AhT-68" style="edgeStyle=orthogonalEdgeStyle;rounded=0;orthogonalLoop=1;jettySize=auto;html=1;exitX=1;exitY=0.5;exitDx=0;exitDy=0;entryX=0;entryY=0.5;entryDx=0;entryDy=0;" edge="1" parent="1" source="59dFEwwqqe-RQWfW4AhT-71" target="59dFEwwqqe-RQWfW4AhT-67">
          <mxGeometry relative="1" as="geometry" />
        </mxCell>
        <mxCell id="59dFEwwqqe-RQWfW4AhT-69" style="edgeStyle=orthogonalEdgeStyle;rounded=0;orthogonalLoop=1;jettySize=auto;html=1;exitX=1;exitY=0.5;exitDx=0;exitDy=0;entryX=0;entryY=0.5;entryDx=0;entryDy=0;" edge="1" parent="1" source="59dFEwwqqe-RQWfW4AhT-71" target="59dFEwwqqe-RQWfW4AhT-73">
          <mxGeometry relative="1" as="geometry" />
        </mxCell>
        <mxCell id="59dFEwwqqe-RQWfW4AhT-70" style="edgeStyle=orthogonalEdgeStyle;rounded=0;orthogonalLoop=1;jettySize=auto;html=1;exitX=1;exitY=0.5;exitDx=0;exitDy=0;entryX=0;entryY=0.5;entryDx=0;entryDy=0;" edge="1" parent="1" source="59dFEwwqqe-RQWfW4AhT-71" target="59dFEwwqqe-RQWfW4AhT-75">
          <mxGeometry relative="1" as="geometry" />
        </mxCell>
        <mxCell id="59dFEwwqqe-RQWfW4AhT-71" value="Приведет к потере конкурентного преимущества" style="rounded=1;whiteSpace=wrap;html=1;" vertex="1" parent="1">
          <mxGeometry x="-385" y="539" width="120" height="60" as="geometry" />
        </mxCell>
        <mxCell id="59dFEwwqqe-RQWfW4AhT-72" value="" style="edgeStyle=orthogonalEdgeStyle;rounded=0;orthogonalLoop=1;jettySize=auto;html=1;" edge="1" parent="1" source="59dFEwwqqe-RQWfW4AhT-73" target="59dFEwwqqe-RQWfW4AhT-57">
          <mxGeometry relative="1" as="geometry" />
        </mxCell>
        <mxCell id="59dFEwwqqe-RQWfW4AhT-73" value="Значительный" style="rounded=1;whiteSpace=wrap;html=1;fillColor=#e1d5e7;strokeColor=#9673a6;" vertex="1" parent="1">
          <mxGeometry x="-125" y="617" width="120" height="60" as="geometry" />
        </mxCell>
        <mxCell id="59dFEwwqqe-RQWfW4AhT-74" value="" style="edgeStyle=orthogonalEdgeStyle;rounded=0;orthogonalLoop=1;jettySize=auto;html=1;" edge="1" parent="1" source="59dFEwwqqe-RQWfW4AhT-75" target="59dFEwwqqe-RQWfW4AhT-55">
          <mxGeometry relative="1" as="geometry" />
        </mxCell>
        <mxCell id="59dFEwwqqe-RQWfW4AhT-75" value="Значительный" style="rounded=1;whiteSpace=wrap;html=1;fillColor=#e1d5e7;strokeColor=#9673a6;" vertex="1" parent="1">
          <mxGeometry x="-125" y="696" width="120" height="60" as="geometry" />
        </mxCell>
        <mxCell id="59dFEwwqqe-RQWfW4AhT-76" style="edgeStyle=orthogonalEdgeStyle;rounded=0;orthogonalLoop=1;jettySize=auto;html=1;exitX=1;exitY=0.5;exitDx=0;exitDy=0;entryX=0.75;entryY=1;entryDx=0;entryDy=0;" edge="1" parent="1" source="59dFEwwqqe-RQWfW4AhT-77" target="59dFEwwqqe-RQWfW4AhT-15">
          <mxGeometry relative="1" as="geometry" />
        </mxCell>
        <mxCell id="59dFEwwqqe-RQWfW4AhT-77" value="Некачественные данные" style="rounded=1;whiteSpace=wrap;html=1;fillColor=#f8cecc;strokeColor=#b85450;" vertex="1" parent="1">
          <mxGeometry x="75" y="1014" width="120" height="60" as="geometry" />
        </mxCell>
        <mxCell id="59dFEwwqqe-RQWfW4AhT-78" style="edgeStyle=orthogonalEdgeStyle;rounded=0;orthogonalLoop=1;jettySize=auto;html=1;exitX=1;exitY=0.5;exitDx=0;exitDy=0;" edge="1" parent="1" source="59dFEwwqqe-RQWfW4AhT-79" target="59dFEwwqqe-RQWfW4AhT-15">
          <mxGeometry relative="1" as="geometry" />
        </mxCell>
        <mxCell id="59dFEwwqqe-RQWfW4AhT-79" value="Искажение" style="rounded=1;whiteSpace=wrap;html=1;fillColor=#f8cecc;strokeColor=#b85450;" vertex="1" parent="1">
          <mxGeometry x="75" y="935" width="120" height="60" as="geometry" />
        </mxCell>
        <mxCell id="59dFEwwqqe-RQWfW4AhT-80" style="edgeStyle=orthogonalEdgeStyle;rounded=0;orthogonalLoop=1;jettySize=auto;html=1;exitX=1;exitY=0.5;exitDx=0;exitDy=0;entryX=0.25;entryY=1;entryDx=0;entryDy=0;" edge="1" parent="1" source="59dFEwwqqe-RQWfW4AhT-81" target="59dFEwwqqe-RQWfW4AhT-15">
          <mxGeometry relative="1" as="geometry" />
        </mxCell>
        <mxCell id="59dFEwwqqe-RQWfW4AhT-81" value="Потеря" style="rounded=1;whiteSpace=wrap;html=1;fillColor=#f8cecc;strokeColor=#b85450;" vertex="1" parent="1">
          <mxGeometry x="75" y="857" width="120" height="60" as="geometry" />
        </mxCell>
        <mxCell id="59dFEwwqqe-RQWfW4AhT-82" style="edgeStyle=orthogonalEdgeStyle;rounded=0;orthogonalLoop=1;jettySize=auto;html=1;exitX=1;exitY=0.5;exitDx=0;exitDy=0;" edge="1" parent="1" source="59dFEwwqqe-RQWfW4AhT-83" target="59dFEwwqqe-RQWfW4AhT-15">
          <mxGeometry relative="1" as="geometry" />
        </mxCell>
        <mxCell id="59dFEwwqqe-RQWfW4AhT-83" value="Утечка" style="rounded=1;whiteSpace=wrap;html=1;fillColor=#f8cecc;strokeColor=#b85450;" vertex="1" parent="1">
          <mxGeometry x="75" y="778" width="120" height="60" as="geometry" />
        </mxCell>
        <mxCell id="59dFEwwqqe-RQWfW4AhT-84" style="edgeStyle=orthogonalEdgeStyle;rounded=0;orthogonalLoop=1;jettySize=auto;html=1;exitX=1;exitY=0.5;exitDx=0;exitDy=0;entryX=0;entryY=0.5;entryDx=0;entryDy=0;" edge="1" parent="1" source="59dFEwwqqe-RQWfW4AhT-85" target="59dFEwwqqe-RQWfW4AhT-83">
          <mxGeometry relative="1" as="geometry" />
        </mxCell>
        <mxCell id="59dFEwwqqe-RQWfW4AhT-274" style="edgeStyle=orthogonalEdgeStyle;rounded=0;orthogonalLoop=1;jettySize=auto;html=1;exitX=0;exitY=0.5;exitDx=0;exitDy=0;endArrow=none;endFill=0;startArrow=classic;startFill=1;" edge="1" parent="1" source="59dFEwwqqe-RQWfW4AhT-85">
          <mxGeometry relative="1" as="geometry">
            <mxPoint x="-194.66666666666663" y="886.3333333333335" as="targetPoint" />
          </mxGeometry>
        </mxCell>
        <mxCell id="59dFEwwqqe-RQWfW4AhT-85" value="Значительный" style="rounded=1;whiteSpace=wrap;html=1;fillColor=#e1d5e7;strokeColor=#9673a6;" vertex="1" parent="1">
          <mxGeometry x="-125" y="778" width="120" height="60" as="geometry" />
        </mxCell>
        <mxCell id="59dFEwwqqe-RQWfW4AhT-88" style="edgeStyle=orthogonalEdgeStyle;rounded=0;orthogonalLoop=1;jettySize=auto;html=1;exitX=1;exitY=0.5;exitDx=0;exitDy=0;" edge="1" parent="1" source="59dFEwwqqe-RQWfW4AhT-89" target="59dFEwwqqe-RQWfW4AhT-81">
          <mxGeometry relative="1" as="geometry" />
        </mxCell>
        <mxCell id="59dFEwwqqe-RQWfW4AhT-89" value="Значительный" style="rounded=1;whiteSpace=wrap;html=1;fillColor=#e1d5e7;strokeColor=#9673a6;" vertex="1" parent="1">
          <mxGeometry x="-125" y="857" width="120" height="60" as="geometry" />
        </mxCell>
        <mxCell id="59dFEwwqqe-RQWfW4AhT-90" style="edgeStyle=orthogonalEdgeStyle;rounded=0;orthogonalLoop=1;jettySize=auto;html=1;exitX=1;exitY=0.5;exitDx=0;exitDy=0;entryX=0;entryY=0.5;entryDx=0;entryDy=0;" edge="1" parent="1" source="59dFEwwqqe-RQWfW4AhT-93" target="59dFEwwqqe-RQWfW4AhT-89">
          <mxGeometry relative="1" as="geometry" />
        </mxCell>
        <mxCell id="59dFEwwqqe-RQWfW4AhT-91" style="edgeStyle=orthogonalEdgeStyle;rounded=0;orthogonalLoop=1;jettySize=auto;html=1;exitX=1;exitY=0.5;exitDx=0;exitDy=0;entryX=0;entryY=0.5;entryDx=0;entryDy=0;" edge="1" parent="1" source="59dFEwwqqe-RQWfW4AhT-93" target="59dFEwwqqe-RQWfW4AhT-95">
          <mxGeometry relative="1" as="geometry" />
        </mxCell>
        <mxCell id="59dFEwwqqe-RQWfW4AhT-92" style="edgeStyle=orthogonalEdgeStyle;rounded=0;orthogonalLoop=1;jettySize=auto;html=1;exitX=1;exitY=0.5;exitDx=0;exitDy=0;entryX=0;entryY=0.5;entryDx=0;entryDy=0;" edge="1" parent="1" source="59dFEwwqqe-RQWfW4AhT-93" target="59dFEwwqqe-RQWfW4AhT-97">
          <mxGeometry relative="1" as="geometry" />
        </mxCell>
        <mxCell id="59dFEwwqqe-RQWfW4AhT-93" value="Приведет к потере конкурентного преимущества" style="rounded=1;whiteSpace=wrap;html=1;" vertex="1" parent="1">
          <mxGeometry x="-385" y="857" width="120" height="60" as="geometry" />
        </mxCell>
        <mxCell id="59dFEwwqqe-RQWfW4AhT-94" value="" style="edgeStyle=orthogonalEdgeStyle;rounded=0;orthogonalLoop=1;jettySize=auto;html=1;" edge="1" parent="1" source="59dFEwwqqe-RQWfW4AhT-95" target="59dFEwwqqe-RQWfW4AhT-79">
          <mxGeometry relative="1" as="geometry" />
        </mxCell>
        <mxCell id="59dFEwwqqe-RQWfW4AhT-95" value="Значительный" style="rounded=1;whiteSpace=wrap;html=1;fillColor=#e1d5e7;strokeColor=#9673a6;" vertex="1" parent="1">
          <mxGeometry x="-125" y="935" width="120" height="60" as="geometry" />
        </mxCell>
        <mxCell id="59dFEwwqqe-RQWfW4AhT-96" value="" style="edgeStyle=orthogonalEdgeStyle;rounded=0;orthogonalLoop=1;jettySize=auto;html=1;" edge="1" parent="1" source="59dFEwwqqe-RQWfW4AhT-97" target="59dFEwwqqe-RQWfW4AhT-77">
          <mxGeometry relative="1" as="geometry" />
        </mxCell>
        <mxCell id="59dFEwwqqe-RQWfW4AhT-97" value="Значительный" style="rounded=1;whiteSpace=wrap;html=1;fillColor=#e1d5e7;strokeColor=#9673a6;" vertex="1" parent="1">
          <mxGeometry x="-125" y="1014" width="120" height="60" as="geometry" />
        </mxCell>
        <mxCell id="59dFEwwqqe-RQWfW4AhT-117" style="edgeStyle=orthogonalEdgeStyle;rounded=0;orthogonalLoop=1;jettySize=auto;html=1;exitX=0;exitY=0.5;exitDx=0;exitDy=0;entryX=0.5;entryY=0;entryDx=0;entryDy=0;" edge="1" parent="1" source="59dFEwwqqe-RQWfW4AhT-118" target="59dFEwwqqe-RQWfW4AhT-23">
          <mxGeometry relative="1" as="geometry" />
        </mxCell>
        <mxCell id="59dFEwwqqe-RQWfW4AhT-118" value="Утечка" style="rounded=1;whiteSpace=wrap;html=1;fillColor=#f8cecc;strokeColor=#b85450;" vertex="1" parent="1">
          <mxGeometry x="1090" y="507" width="120" height="30" as="geometry" />
        </mxCell>
        <mxCell id="59dFEwwqqe-RQWfW4AhT-119" style="edgeStyle=orthogonalEdgeStyle;rounded=0;orthogonalLoop=1;jettySize=auto;html=1;exitX=0;exitY=0.5;exitDx=0;exitDy=0;entryX=0.75;entryY=0;entryDx=0;entryDy=0;" edge="1" parent="1" source="59dFEwwqqe-RQWfW4AhT-120" target="59dFEwwqqe-RQWfW4AhT-23">
          <mxGeometry relative="1" as="geometry" />
        </mxCell>
        <mxCell id="59dFEwwqqe-RQWfW4AhT-120" value="Потеря" style="rounded=1;whiteSpace=wrap;html=1;fillColor=#f8cecc;strokeColor=#b85450;" vertex="1" parent="1">
          <mxGeometry x="1090" y="556" width="120" height="26" as="geometry" />
        </mxCell>
        <mxCell id="59dFEwwqqe-RQWfW4AhT-121" style="edgeStyle=orthogonalEdgeStyle;rounded=0;orthogonalLoop=1;jettySize=auto;html=1;exitX=0;exitY=0.5;exitDx=0;exitDy=0;entryX=1;entryY=0.5;entryDx=0;entryDy=0;" edge="1" parent="1" source="59dFEwwqqe-RQWfW4AhT-122" target="59dFEwwqqe-RQWfW4AhT-23">
          <mxGeometry relative="1" as="geometry" />
        </mxCell>
        <mxCell id="59dFEwwqqe-RQWfW4AhT-122" value="Искажение" style="rounded=1;whiteSpace=wrap;html=1;fillColor=#f8cecc;strokeColor=#b85450;" vertex="1" parent="1">
          <mxGeometry x="1090" y="595" width="120" height="26" as="geometry" />
        </mxCell>
        <mxCell id="59dFEwwqqe-RQWfW4AhT-123" style="edgeStyle=orthogonalEdgeStyle;rounded=0;orthogonalLoop=1;jettySize=auto;html=1;exitX=0;exitY=0.5;exitDx=0;exitDy=0;entryX=1;entryY=0.75;entryDx=0;entryDy=0;" edge="1" parent="1" source="59dFEwwqqe-RQWfW4AhT-124" target="59dFEwwqqe-RQWfW4AhT-23">
          <mxGeometry relative="1" as="geometry" />
        </mxCell>
        <mxCell id="59dFEwwqqe-RQWfW4AhT-124" value="Некачественные данные" style="rounded=1;whiteSpace=wrap;html=1;fillColor=#f8cecc;strokeColor=#b85450;" vertex="1" parent="1">
          <mxGeometry x="1090" y="637" width="120" height="40" as="geometry" />
        </mxCell>
        <mxCell id="59dFEwwqqe-RQWfW4AhT-125" value="" style="edgeStyle=orthogonalEdgeStyle;rounded=0;orthogonalLoop=1;jettySize=auto;html=1;" edge="1" parent="1" source="59dFEwwqqe-RQWfW4AhT-126" target="59dFEwwqqe-RQWfW4AhT-124">
          <mxGeometry relative="1" as="geometry" />
        </mxCell>
        <mxCell id="59dFEwwqqe-RQWfW4AhT-126" value="Значительный" style="rounded=1;whiteSpace=wrap;html=1;fillColor=#e1d5e7;strokeColor=#9673a6;" vertex="1" parent="1">
          <mxGeometry x="1310" y="644" width="120" height="26" as="geometry" />
        </mxCell>
        <mxCell id="59dFEwwqqe-RQWfW4AhT-127" value="" style="edgeStyle=orthogonalEdgeStyle;rounded=0;orthogonalLoop=1;jettySize=auto;html=1;" edge="1" parent="1" source="59dFEwwqqe-RQWfW4AhT-128" target="59dFEwwqqe-RQWfW4AhT-122">
          <mxGeometry relative="1" as="geometry" />
        </mxCell>
        <mxCell id="59dFEwwqqe-RQWfW4AhT-128" value="Значительный" style="rounded=1;whiteSpace=wrap;html=1;fillColor=#e1d5e7;strokeColor=#9673a6;" vertex="1" parent="1">
          <mxGeometry x="1310" y="595" width="120" height="26" as="geometry" />
        </mxCell>
        <mxCell id="59dFEwwqqe-RQWfW4AhT-129" value="" style="edgeStyle=orthogonalEdgeStyle;rounded=0;orthogonalLoop=1;jettySize=auto;html=1;" edge="1" parent="1" source="59dFEwwqqe-RQWfW4AhT-130" target="59dFEwwqqe-RQWfW4AhT-120">
          <mxGeometry relative="1" as="geometry" />
        </mxCell>
        <mxCell id="59dFEwwqqe-RQWfW4AhT-130" value="Значительный" style="rounded=1;whiteSpace=wrap;html=1;fillColor=#e1d5e7;strokeColor=#9673a6;" vertex="1" parent="1">
          <mxGeometry x="1310" y="556" width="120" height="26" as="geometry" />
        </mxCell>
        <mxCell id="59dFEwwqqe-RQWfW4AhT-131" value="" style="edgeStyle=orthogonalEdgeStyle;rounded=0;orthogonalLoop=1;jettySize=auto;html=1;" edge="1" parent="1" source="59dFEwwqqe-RQWfW4AhT-132" target="59dFEwwqqe-RQWfW4AhT-118">
          <mxGeometry relative="1" as="geometry" />
        </mxCell>
        <mxCell id="59dFEwwqqe-RQWfW4AhT-132" value="Критический" style="rounded=1;whiteSpace=wrap;html=1;fillColor=#e1d5e7;strokeColor=#9673a6;" vertex="1" parent="1">
          <mxGeometry x="1310" y="507" width="120" height="30" as="geometry" />
        </mxCell>
        <mxCell id="59dFEwwqqe-RQWfW4AhT-133" style="edgeStyle=orthogonalEdgeStyle;rounded=0;orthogonalLoop=1;jettySize=auto;html=1;exitX=0;exitY=0.5;exitDx=0;exitDy=0;entryX=1;entryY=0.5;entryDx=0;entryDy=0;" edge="1" parent="1" source="59dFEwwqqe-RQWfW4AhT-134" target="59dFEwwqqe-RQWfW4AhT-132">
          <mxGeometry relative="1" as="geometry" />
        </mxCell>
        <mxCell id="59dFEwwqqe-RQWfW4AhT-134" value="Репутационные потери, нарушение работы всей системы, финансовые потери, риск судебных исков по сделкам" style="rounded=1;whiteSpace=wrap;html=1;" vertex="1" parent="1">
          <mxGeometry x="1500" y="507" width="190" height="60" as="geometry" />
        </mxCell>
        <mxCell id="59dFEwwqqe-RQWfW4AhT-135" style="edgeStyle=orthogonalEdgeStyle;rounded=0;orthogonalLoop=1;jettySize=auto;html=1;exitX=0;exitY=0.25;exitDx=0;exitDy=0;" edge="1" parent="1" source="59dFEwwqqe-RQWfW4AhT-138" target="59dFEwwqqe-RQWfW4AhT-130">
          <mxGeometry relative="1" as="geometry">
            <mxPoint x="1780" y="489" as="sourcePoint" />
          </mxGeometry>
        </mxCell>
        <mxCell id="59dFEwwqqe-RQWfW4AhT-136" style="edgeStyle=orthogonalEdgeStyle;rounded=0;orthogonalLoop=1;jettySize=auto;html=1;exitX=0;exitY=0.75;exitDx=0;exitDy=0;entryX=1;entryY=0.5;entryDx=0;entryDy=0;" edge="1" parent="1" source="59dFEwwqqe-RQWfW4AhT-138" target="59dFEwwqqe-RQWfW4AhT-128">
          <mxGeometry relative="1" as="geometry">
            <mxPoint x="1780" y="504" as="sourcePoint" />
          </mxGeometry>
        </mxCell>
        <mxCell id="59dFEwwqqe-RQWfW4AhT-137" style="edgeStyle=orthogonalEdgeStyle;rounded=0;orthogonalLoop=1;jettySize=auto;html=1;exitX=0.25;exitY=1;exitDx=0;exitDy=0;entryX=1;entryY=0.5;entryDx=0;entryDy=0;" edge="1" parent="1" source="59dFEwwqqe-RQWfW4AhT-138" target="59dFEwwqqe-RQWfW4AhT-126">
          <mxGeometry relative="1" as="geometry">
            <mxPoint x="1827.5" y="519" as="sourcePoint" />
          </mxGeometry>
        </mxCell>
        <mxCell id="59dFEwwqqe-RQWfW4AhT-138" value="Репутационные потери, финансовые потери, риски судебных исков по сделкам" style="rounded=1;whiteSpace=wrap;html=1;" vertex="1" parent="1">
          <mxGeometry x="1500" y="578" width="190" height="60" as="geometry" />
        </mxCell>
        <mxCell id="59dFEwwqqe-RQWfW4AhT-139" style="edgeStyle=orthogonalEdgeStyle;rounded=0;orthogonalLoop=1;jettySize=auto;html=1;exitX=0;exitY=0.5;exitDx=0;exitDy=0;entryX=0.5;entryY=0;entryDx=0;entryDy=0;" edge="1" parent="1" source="59dFEwwqqe-RQWfW4AhT-140" target="59dFEwwqqe-RQWfW4AhT-13">
          <mxGeometry relative="1" as="geometry" />
        </mxCell>
        <mxCell id="59dFEwwqqe-RQWfW4AhT-140" value="Утечка" style="rounded=1;whiteSpace=wrap;html=1;fillColor=#f8cecc;strokeColor=#b85450;" vertex="1" parent="1">
          <mxGeometry x="1080" y="890" width="120" height="28" as="geometry" />
        </mxCell>
        <mxCell id="59dFEwwqqe-RQWfW4AhT-141" style="edgeStyle=orthogonalEdgeStyle;rounded=0;orthogonalLoop=1;jettySize=auto;html=1;exitX=0;exitY=0.5;exitDx=0;exitDy=0;entryX=0.75;entryY=0;entryDx=0;entryDy=0;" edge="1" parent="1" source="59dFEwwqqe-RQWfW4AhT-142" target="59dFEwwqqe-RQWfW4AhT-13">
          <mxGeometry relative="1" as="geometry" />
        </mxCell>
        <mxCell id="59dFEwwqqe-RQWfW4AhT-142" value="Потеря" style="rounded=1;whiteSpace=wrap;html=1;fillColor=#f8cecc;strokeColor=#b85450;" vertex="1" parent="1">
          <mxGeometry x="1080" y="928" width="120" height="28" as="geometry" />
        </mxCell>
        <mxCell id="59dFEwwqqe-RQWfW4AhT-143" style="edgeStyle=orthogonalEdgeStyle;rounded=0;orthogonalLoop=1;jettySize=auto;html=1;exitX=0;exitY=0.5;exitDx=0;exitDy=0;entryX=1;entryY=0.25;entryDx=0;entryDy=0;" edge="1" parent="1" source="59dFEwwqqe-RQWfW4AhT-144" target="59dFEwwqqe-RQWfW4AhT-13">
          <mxGeometry relative="1" as="geometry" />
        </mxCell>
        <mxCell id="59dFEwwqqe-RQWfW4AhT-144" value="Искажение" style="rounded=1;whiteSpace=wrap;html=1;fillColor=#f8cecc;strokeColor=#b85450;" vertex="1" parent="1">
          <mxGeometry x="1080" y="962" width="120" height="28" as="geometry" />
        </mxCell>
        <mxCell id="59dFEwwqqe-RQWfW4AhT-145" style="edgeStyle=orthogonalEdgeStyle;rounded=0;orthogonalLoop=1;jettySize=auto;html=1;exitX=0;exitY=0.5;exitDx=0;exitDy=0;entryX=1;entryY=0.75;entryDx=0;entryDy=0;" edge="1" parent="1" source="59dFEwwqqe-RQWfW4AhT-146" target="59dFEwwqqe-RQWfW4AhT-13">
          <mxGeometry relative="1" as="geometry">
            <mxPoint x="1220" y="1019" as="sourcePoint" />
          </mxGeometry>
        </mxCell>
        <mxCell id="59dFEwwqqe-RQWfW4AhT-146" value="Некачественные данные" style="rounded=1;whiteSpace=wrap;html=1;fillColor=#f8cecc;strokeColor=#b85450;" vertex="1" parent="1">
          <mxGeometry x="1080" y="1002" width="120" height="34" as="geometry" />
        </mxCell>
        <mxCell id="59dFEwwqqe-RQWfW4AhT-147" style="edgeStyle=orthogonalEdgeStyle;rounded=0;orthogonalLoop=1;jettySize=auto;html=1;entryX=1;entryY=0.5;entryDx=0;entryDy=0;" edge="1" parent="1" source="59dFEwwqqe-RQWfW4AhT-148" target="59dFEwwqqe-RQWfW4AhT-146">
          <mxGeometry relative="1" as="geometry">
            <mxPoint x="1340" y="1019" as="targetPoint" />
          </mxGeometry>
        </mxCell>
        <mxCell id="59dFEwwqqe-RQWfW4AhT-148" value="Критический" style="rounded=1;whiteSpace=wrap;html=1;fillColor=#e1d5e7;strokeColor=#9673a6;" vertex="1" parent="1">
          <mxGeometry x="1320" y="1002" width="120" height="28" as="geometry" />
        </mxCell>
        <mxCell id="59dFEwwqqe-RQWfW4AhT-149" value="" style="edgeStyle=orthogonalEdgeStyle;rounded=0;orthogonalLoop=1;jettySize=auto;html=1;" edge="1" parent="1" source="59dFEwwqqe-RQWfW4AhT-150" target="59dFEwwqqe-RQWfW4AhT-144">
          <mxGeometry relative="1" as="geometry" />
        </mxCell>
        <mxCell id="59dFEwwqqe-RQWfW4AhT-150" value="Критический" style="rounded=1;whiteSpace=wrap;html=1;fillColor=#e1d5e7;strokeColor=#9673a6;" vertex="1" parent="1">
          <mxGeometry x="1320" y="962" width="120" height="28" as="geometry" />
        </mxCell>
        <mxCell id="59dFEwwqqe-RQWfW4AhT-151" value="" style="edgeStyle=orthogonalEdgeStyle;rounded=0;orthogonalLoop=1;jettySize=auto;html=1;" edge="1" parent="1" source="59dFEwwqqe-RQWfW4AhT-152" target="59dFEwwqqe-RQWfW4AhT-142">
          <mxGeometry relative="1" as="geometry" />
        </mxCell>
        <mxCell id="59dFEwwqqe-RQWfW4AhT-152" value="Значительный" style="rounded=1;whiteSpace=wrap;html=1;fillColor=#e1d5e7;strokeColor=#9673a6;" vertex="1" parent="1">
          <mxGeometry x="1320" y="928" width="120" height="28" as="geometry" />
        </mxCell>
        <mxCell id="59dFEwwqqe-RQWfW4AhT-153" value="" style="edgeStyle=orthogonalEdgeStyle;rounded=0;orthogonalLoop=1;jettySize=auto;html=1;" edge="1" parent="1" source="59dFEwwqqe-RQWfW4AhT-154" target="59dFEwwqqe-RQWfW4AhT-140">
          <mxGeometry relative="1" as="geometry" />
        </mxCell>
        <mxCell id="59dFEwwqqe-RQWfW4AhT-154" value="Критичсеский" style="rounded=1;whiteSpace=wrap;html=1;fillColor=#e1d5e7;strokeColor=#9673a6;" vertex="1" parent="1">
          <mxGeometry x="1320" y="890" width="120" height="28" as="geometry" />
        </mxCell>
        <mxCell id="59dFEwwqqe-RQWfW4AhT-155" style="edgeStyle=orthogonalEdgeStyle;rounded=0;orthogonalLoop=1;jettySize=auto;html=1;exitX=0.5;exitY=0;exitDx=0;exitDy=0;entryX=1;entryY=0.5;entryDx=0;entryDy=0;" edge="1" parent="1" source="59dFEwwqqe-RQWfW4AhT-158" target="59dFEwwqqe-RQWfW4AhT-154">
          <mxGeometry relative="1" as="geometry">
            <mxPoint x="1757.5" y="930" as="sourcePoint" />
          </mxGeometry>
        </mxCell>
        <mxCell id="59dFEwwqqe-RQWfW4AhT-156" style="edgeStyle=orthogonalEdgeStyle;rounded=0;orthogonalLoop=1;jettySize=auto;html=1;exitX=0;exitY=0.25;exitDx=0;exitDy=0;entryX=1;entryY=0.5;entryDx=0;entryDy=0;" edge="1" parent="1" source="59dFEwwqqe-RQWfW4AhT-158" target="59dFEwwqqe-RQWfW4AhT-152">
          <mxGeometry relative="1" as="geometry">
            <mxPoint x="1710" y="945" as="sourcePoint" />
          </mxGeometry>
        </mxCell>
        <mxCell id="59dFEwwqqe-RQWfW4AhT-157" style="edgeStyle=orthogonalEdgeStyle;rounded=0;orthogonalLoop=1;jettySize=auto;html=1;entryX=1;entryY=0.5;entryDx=0;entryDy=0;exitX=0.5;exitY=1;exitDx=0;exitDy=0;" edge="1" parent="1" source="59dFEwwqqe-RQWfW4AhT-158" target="59dFEwwqqe-RQWfW4AhT-148">
          <mxGeometry relative="1" as="geometry">
            <mxPoint x="1805" y="990" as="sourcePoint" />
            <Array as="points">
              <mxPoint x="1605" y="1016" />
            </Array>
          </mxGeometry>
        </mxCell>
        <mxCell id="59dFEwwqqe-RQWfW4AhT-158" value="Репутационные потери, финансовые потери, риски судебных исков по сделкам" style="rounded=1;whiteSpace=wrap;html=1;" vertex="1" parent="1">
          <mxGeometry x="1510" y="930" width="190" height="60" as="geometry" />
        </mxCell>
        <mxCell id="59dFEwwqqe-RQWfW4AhT-159" style="edgeStyle=orthogonalEdgeStyle;rounded=0;orthogonalLoop=1;jettySize=auto;html=1;exitX=0;exitY=0.75;exitDx=0;exitDy=0;entryX=0.992;entryY=0.617;entryDx=0;entryDy=0;entryPerimeter=0;" edge="1" parent="1" source="59dFEwwqqe-RQWfW4AhT-158" target="59dFEwwqqe-RQWfW4AhT-150">
          <mxGeometry relative="1" as="geometry">
            <mxPoint x="1710" y="975" as="sourcePoint" />
          </mxGeometry>
        </mxCell>
        <mxCell id="59dFEwwqqe-RQWfW4AhT-160" style="edgeStyle=orthogonalEdgeStyle;rounded=0;orthogonalLoop=1;jettySize=auto;html=1;exitX=0;exitY=0.5;exitDx=0;exitDy=0;entryX=0.75;entryY=0;entryDx=0;entryDy=0;" edge="1" parent="1" source="59dFEwwqqe-RQWfW4AhT-161" target="59dFEwwqqe-RQWfW4AhT-27">
          <mxGeometry relative="1" as="geometry" />
        </mxCell>
        <mxCell id="59dFEwwqqe-RQWfW4AhT-161" value="Утечка" style="rounded=1;whiteSpace=wrap;html=1;fillColor=#f8cecc;strokeColor=#b85450;" vertex="1" parent="1">
          <mxGeometry x="1080" y="730" width="120" height="30" as="geometry" />
        </mxCell>
        <mxCell id="59dFEwwqqe-RQWfW4AhT-162" style="edgeStyle=orthogonalEdgeStyle;rounded=0;orthogonalLoop=1;jettySize=auto;html=1;exitX=0;exitY=0.5;exitDx=0;exitDy=0;entryX=1;entryY=0.25;entryDx=0;entryDy=0;" edge="1" parent="1" source="59dFEwwqqe-RQWfW4AhT-163" target="59dFEwwqqe-RQWfW4AhT-27">
          <mxGeometry relative="1" as="geometry" />
        </mxCell>
        <mxCell id="59dFEwwqqe-RQWfW4AhT-163" value="Потеря" style="rounded=1;whiteSpace=wrap;html=1;fillColor=#f8cecc;strokeColor=#b85450;" vertex="1" parent="1">
          <mxGeometry x="1080" y="770" width="120" height="30" as="geometry" />
        </mxCell>
        <mxCell id="59dFEwwqqe-RQWfW4AhT-164" style="edgeStyle=orthogonalEdgeStyle;rounded=0;orthogonalLoop=1;jettySize=auto;html=1;exitX=0;exitY=0.5;exitDx=0;exitDy=0;entryX=1;entryY=0.5;entryDx=0;entryDy=0;" edge="1" parent="1" source="59dFEwwqqe-RQWfW4AhT-165" target="59dFEwwqqe-RQWfW4AhT-27">
          <mxGeometry relative="1" as="geometry" />
        </mxCell>
        <mxCell id="59dFEwwqqe-RQWfW4AhT-165" value="Искажение" style="rounded=1;whiteSpace=wrap;html=1;fillColor=#f8cecc;strokeColor=#b85450;" vertex="1" parent="1">
          <mxGeometry x="1080" y="810" width="120" height="30" as="geometry" />
        </mxCell>
        <mxCell id="59dFEwwqqe-RQWfW4AhT-166" style="edgeStyle=orthogonalEdgeStyle;rounded=0;orthogonalLoop=1;jettySize=auto;html=1;exitX=0;exitY=0.5;exitDx=0;exitDy=0;entryX=1;entryY=0.75;entryDx=0;entryDy=0;" edge="1" parent="1" source="59dFEwwqqe-RQWfW4AhT-167" target="59dFEwwqqe-RQWfW4AhT-27">
          <mxGeometry relative="1" as="geometry" />
        </mxCell>
        <mxCell id="59dFEwwqqe-RQWfW4AhT-167" value="Некачественные данные" style="rounded=1;whiteSpace=wrap;html=1;fillColor=#f8cecc;strokeColor=#b85450;" vertex="1" parent="1">
          <mxGeometry x="1080" y="846" width="120" height="34" as="geometry" />
        </mxCell>
        <mxCell id="59dFEwwqqe-RQWfW4AhT-168" value="" style="edgeStyle=orthogonalEdgeStyle;rounded=0;orthogonalLoop=1;jettySize=auto;html=1;" edge="1" parent="1" source="59dFEwwqqe-RQWfW4AhT-169" target="59dFEwwqqe-RQWfW4AhT-167">
          <mxGeometry relative="1" as="geometry" />
        </mxCell>
        <mxCell id="59dFEwwqqe-RQWfW4AhT-169" value="Значительный" style="rounded=1;whiteSpace=wrap;html=1;fillColor=#e1d5e7;strokeColor=#9673a6;" vertex="1" parent="1">
          <mxGeometry x="1320" y="846" width="120" height="30" as="geometry" />
        </mxCell>
        <mxCell id="59dFEwwqqe-RQWfW4AhT-170" value="" style="edgeStyle=orthogonalEdgeStyle;rounded=0;orthogonalLoop=1;jettySize=auto;html=1;" edge="1" parent="1" source="59dFEwwqqe-RQWfW4AhT-171" target="59dFEwwqqe-RQWfW4AhT-165">
          <mxGeometry relative="1" as="geometry" />
        </mxCell>
        <mxCell id="59dFEwwqqe-RQWfW4AhT-171" value="Значительный" style="rounded=1;whiteSpace=wrap;html=1;fillColor=#e1d5e7;strokeColor=#9673a6;" vertex="1" parent="1">
          <mxGeometry x="1320" y="810" width="120" height="30" as="geometry" />
        </mxCell>
        <mxCell id="59dFEwwqqe-RQWfW4AhT-172" value="" style="edgeStyle=orthogonalEdgeStyle;rounded=0;orthogonalLoop=1;jettySize=auto;html=1;" edge="1" parent="1" source="59dFEwwqqe-RQWfW4AhT-173" target="59dFEwwqqe-RQWfW4AhT-163">
          <mxGeometry relative="1" as="geometry" />
        </mxCell>
        <mxCell id="59dFEwwqqe-RQWfW4AhT-173" value="Значительный" style="rounded=1;whiteSpace=wrap;html=1;fillColor=#e1d5e7;strokeColor=#9673a6;" vertex="1" parent="1">
          <mxGeometry x="1320" y="770" width="120" height="30" as="geometry" />
        </mxCell>
        <mxCell id="59dFEwwqqe-RQWfW4AhT-174" value="" style="edgeStyle=orthogonalEdgeStyle;rounded=0;orthogonalLoop=1;jettySize=auto;html=1;" edge="1" parent="1" source="59dFEwwqqe-RQWfW4AhT-175" target="59dFEwwqqe-RQWfW4AhT-161">
          <mxGeometry relative="1" as="geometry" />
        </mxCell>
        <mxCell id="59dFEwwqqe-RQWfW4AhT-175" value="Значительный" style="rounded=1;whiteSpace=wrap;html=1;fillColor=#e1d5e7;strokeColor=#9673a6;" vertex="1" parent="1">
          <mxGeometry x="1320" y="730" width="120" height="30" as="geometry" />
        </mxCell>
        <mxCell id="59dFEwwqqe-RQWfW4AhT-176" style="edgeStyle=orthogonalEdgeStyle;rounded=0;orthogonalLoop=1;jettySize=auto;html=1;exitX=0;exitY=0.25;exitDx=0;exitDy=0;entryX=1;entryY=0.5;entryDx=0;entryDy=0;" edge="1" parent="1" source="59dFEwwqqe-RQWfW4AhT-180" target="59dFEwwqqe-RQWfW4AhT-173">
          <mxGeometry relative="1" as="geometry">
            <mxPoint x="1820" y="765" as="sourcePoint" />
          </mxGeometry>
        </mxCell>
        <mxCell id="59dFEwwqqe-RQWfW4AhT-177" style="edgeStyle=orthogonalEdgeStyle;rounded=0;orthogonalLoop=1;jettySize=auto;html=1;exitX=0;exitY=0.5;exitDx=0;exitDy=0;entryX=1;entryY=0.5;entryDx=0;entryDy=0;" edge="1" parent="1" source="59dFEwwqqe-RQWfW4AhT-180" target="59dFEwwqqe-RQWfW4AhT-171">
          <mxGeometry relative="1" as="geometry">
            <mxPoint x="1820" y="795" as="sourcePoint" />
          </mxGeometry>
        </mxCell>
        <mxCell id="59dFEwwqqe-RQWfW4AhT-178" style="edgeStyle=orthogonalEdgeStyle;rounded=0;orthogonalLoop=1;jettySize=auto;html=1;exitX=0.5;exitY=0;exitDx=0;exitDy=0;entryX=1;entryY=0.5;entryDx=0;entryDy=0;" edge="1" parent="1" source="59dFEwwqqe-RQWfW4AhT-180" target="59dFEwwqqe-RQWfW4AhT-175">
          <mxGeometry relative="1" as="geometry">
            <mxPoint x="1850" y="750" as="sourcePoint" />
          </mxGeometry>
        </mxCell>
        <mxCell id="59dFEwwqqe-RQWfW4AhT-179" style="edgeStyle=orthogonalEdgeStyle;rounded=0;orthogonalLoop=1;jettySize=auto;html=1;exitX=0;exitY=0.75;exitDx=0;exitDy=0;entryX=1;entryY=0.5;entryDx=0;entryDy=0;" edge="1" parent="1" source="59dFEwwqqe-RQWfW4AhT-180" target="59dFEwwqqe-RQWfW4AhT-169">
          <mxGeometry relative="1" as="geometry">
            <mxPoint x="1850" y="810" as="sourcePoint" />
          </mxGeometry>
        </mxCell>
        <mxCell id="59dFEwwqqe-RQWfW4AhT-180" value="Репутационные и финансовые потери" style="rounded=1;whiteSpace=wrap;html=1;" vertex="1" parent="1">
          <mxGeometry x="1570" y="795" width="120" height="60" as="geometry" />
        </mxCell>
        <mxCell id="59dFEwwqqe-RQWfW4AhT-184" style="edgeStyle=orthogonalEdgeStyle;rounded=0;orthogonalLoop=1;jettySize=auto;html=1;exitX=0;exitY=0.5;exitDx=0;exitDy=0;entryX=0.5;entryY=0;entryDx=0;entryDy=0;" edge="1" parent="1" source="59dFEwwqqe-RQWfW4AhT-185" target="59dFEwwqqe-RQWfW4AhT-25">
          <mxGeometry relative="1" as="geometry" />
        </mxCell>
        <mxCell id="59dFEwwqqe-RQWfW4AhT-185" value="Утечка" style="rounded=1;whiteSpace=wrap;html=1;fillColor=#f8cecc;strokeColor=#b85450;" vertex="1" parent="1">
          <mxGeometry x="1080" y="320" width="120" height="30" as="geometry" />
        </mxCell>
        <mxCell id="59dFEwwqqe-RQWfW4AhT-186" style="edgeStyle=orthogonalEdgeStyle;rounded=0;orthogonalLoop=1;jettySize=auto;html=1;exitX=0;exitY=0.5;exitDx=0;exitDy=0;entryX=0.75;entryY=0;entryDx=0;entryDy=0;" edge="1" parent="1" source="59dFEwwqqe-RQWfW4AhT-187" target="59dFEwwqqe-RQWfW4AhT-25">
          <mxGeometry relative="1" as="geometry" />
        </mxCell>
        <mxCell id="59dFEwwqqe-RQWfW4AhT-187" value="Потеря" style="rounded=1;whiteSpace=wrap;html=1;fillColor=#f8cecc;strokeColor=#b85450;" vertex="1" parent="1">
          <mxGeometry x="1080" y="359" width="120" height="30" as="geometry" />
        </mxCell>
        <mxCell id="59dFEwwqqe-RQWfW4AhT-188" style="edgeStyle=orthogonalEdgeStyle;rounded=0;orthogonalLoop=1;jettySize=auto;html=1;exitX=0;exitY=0.5;exitDx=0;exitDy=0;entryX=1;entryY=0.25;entryDx=0;entryDy=0;" edge="1" parent="1" source="59dFEwwqqe-RQWfW4AhT-189" target="59dFEwwqqe-RQWfW4AhT-25">
          <mxGeometry relative="1" as="geometry" />
        </mxCell>
        <mxCell id="59dFEwwqqe-RQWfW4AhT-189" value="Искажение" style="rounded=1;whiteSpace=wrap;html=1;fillColor=#f8cecc;strokeColor=#b85450;" vertex="1" parent="1">
          <mxGeometry x="1080" y="400" width="120" height="30" as="geometry" />
        </mxCell>
        <mxCell id="59dFEwwqqe-RQWfW4AhT-190" style="edgeStyle=orthogonalEdgeStyle;rounded=0;orthogonalLoop=1;jettySize=auto;html=1;exitX=0;exitY=0.5;exitDx=0;exitDy=0;entryX=1;entryY=0.5;entryDx=0;entryDy=0;" edge="1" parent="1" source="59dFEwwqqe-RQWfW4AhT-191" target="59dFEwwqqe-RQWfW4AhT-25">
          <mxGeometry relative="1" as="geometry" />
        </mxCell>
        <mxCell id="59dFEwwqqe-RQWfW4AhT-191" value="Некачественные данные" style="rounded=1;whiteSpace=wrap;html=1;fillColor=#f8cecc;strokeColor=#b85450;" vertex="1" parent="1">
          <mxGeometry x="1080" y="440" width="120" height="34" as="geometry" />
        </mxCell>
        <mxCell id="59dFEwwqqe-RQWfW4AhT-192" value="" style="edgeStyle=orthogonalEdgeStyle;rounded=0;orthogonalLoop=1;jettySize=auto;html=1;" edge="1" parent="1" source="59dFEwwqqe-RQWfW4AhT-193" target="59dFEwwqqe-RQWfW4AhT-191">
          <mxGeometry relative="1" as="geometry" />
        </mxCell>
        <mxCell id="59dFEwwqqe-RQWfW4AhT-193" value="Незначителоьный" style="rounded=1;whiteSpace=wrap;html=1;fillColor=#e1d5e7;strokeColor=#9673a6;" vertex="1" parent="1">
          <mxGeometry x="1320" y="440" width="120" height="30" as="geometry" />
        </mxCell>
        <mxCell id="59dFEwwqqe-RQWfW4AhT-194" value="" style="edgeStyle=orthogonalEdgeStyle;rounded=0;orthogonalLoop=1;jettySize=auto;html=1;" edge="1" parent="1" source="59dFEwwqqe-RQWfW4AhT-195" target="59dFEwwqqe-RQWfW4AhT-189">
          <mxGeometry relative="1" as="geometry" />
        </mxCell>
        <mxCell id="59dFEwwqqe-RQWfW4AhT-195" value="Незначительный" style="rounded=1;whiteSpace=wrap;html=1;fillColor=#e1d5e7;strokeColor=#9673a6;" vertex="1" parent="1">
          <mxGeometry x="1320" y="400" width="120" height="30" as="geometry" />
        </mxCell>
        <mxCell id="59dFEwwqqe-RQWfW4AhT-196" value="" style="edgeStyle=orthogonalEdgeStyle;rounded=0;orthogonalLoop=1;jettySize=auto;html=1;" edge="1" parent="1" source="59dFEwwqqe-RQWfW4AhT-197" target="59dFEwwqqe-RQWfW4AhT-187">
          <mxGeometry relative="1" as="geometry" />
        </mxCell>
        <mxCell id="59dFEwwqqe-RQWfW4AhT-197" value="Значительный" style="rounded=1;whiteSpace=wrap;html=1;fillColor=#e1d5e7;strokeColor=#9673a6;" vertex="1" parent="1">
          <mxGeometry x="1320" y="359" width="120" height="30" as="geometry" />
        </mxCell>
        <mxCell id="59dFEwwqqe-RQWfW4AhT-198" value="" style="edgeStyle=orthogonalEdgeStyle;rounded=0;orthogonalLoop=1;jettySize=auto;html=1;" edge="1" parent="1" source="59dFEwwqqe-RQWfW4AhT-199" target="59dFEwwqqe-RQWfW4AhT-185">
          <mxGeometry relative="1" as="geometry" />
        </mxCell>
        <mxCell id="59dFEwwqqe-RQWfW4AhT-199" value="Значительный" style="rounded=1;whiteSpace=wrap;html=1;fillColor=#e1d5e7;strokeColor=#9673a6;" vertex="1" parent="1">
          <mxGeometry x="1320" y="320" width="120" height="30" as="geometry" />
        </mxCell>
        <mxCell id="59dFEwwqqe-RQWfW4AhT-200" style="edgeStyle=orthogonalEdgeStyle;rounded=0;orthogonalLoop=1;jettySize=auto;html=1;exitX=0;exitY=0.25;exitDx=0;exitDy=0;entryX=1;entryY=0.5;entryDx=0;entryDy=0;" edge="1" parent="1" source="59dFEwwqqe-RQWfW4AhT-202" target="59dFEwwqqe-RQWfW4AhT-199">
          <mxGeometry relative="1" as="geometry">
            <mxPoint x="1560" y="310" as="targetPoint" />
          </mxGeometry>
        </mxCell>
        <mxCell id="59dFEwwqqe-RQWfW4AhT-201" style="edgeStyle=orthogonalEdgeStyle;rounded=0;orthogonalLoop=1;jettySize=auto;html=1;exitX=0;exitY=0.75;exitDx=0;exitDy=0;" edge="1" parent="1" source="59dFEwwqqe-RQWfW4AhT-202" target="59dFEwwqqe-RQWfW4AhT-197">
          <mxGeometry relative="1" as="geometry" />
        </mxCell>
        <mxCell id="59dFEwwqqe-RQWfW4AhT-202" value="Репутационные потери, риск нарушения работы системы, возможность получения доступа к другим категориям данных" style="rounded=1;whiteSpace=wrap;html=1;" vertex="1" parent="1">
          <mxGeometry x="1485" y="320" width="230" height="70" as="geometry" />
        </mxCell>
        <mxCell id="59dFEwwqqe-RQWfW4AhT-203" style="edgeStyle=orthogonalEdgeStyle;rounded=0;orthogonalLoop=1;jettySize=auto;html=1;exitX=0;exitY=0.25;exitDx=0;exitDy=0;entryX=1;entryY=0.5;entryDx=0;entryDy=0;" edge="1" parent="1" source="59dFEwwqqe-RQWfW4AhT-205" target="59dFEwwqqe-RQWfW4AhT-195">
          <mxGeometry relative="1" as="geometry" />
        </mxCell>
        <mxCell id="59dFEwwqqe-RQWfW4AhT-204" style="edgeStyle=orthogonalEdgeStyle;rounded=0;orthogonalLoop=1;jettySize=auto;html=1;exitX=0;exitY=0.75;exitDx=0;exitDy=0;entryX=1;entryY=0.5;entryDx=0;entryDy=0;" edge="1" parent="1" source="59dFEwwqqe-RQWfW4AhT-205" target="59dFEwwqqe-RQWfW4AhT-193">
          <mxGeometry relative="1" as="geometry" />
        </mxCell>
        <mxCell id="59dFEwwqqe-RQWfW4AhT-205" value="Кратковременное нарушение обслуживания пользователей" style="rounded=1;whiteSpace=wrap;html=1;" vertex="1" parent="1">
          <mxGeometry x="1485" y="400" width="200" height="60" as="geometry" />
        </mxCell>
        <mxCell id="59dFEwwqqe-RQWfW4AhT-206" style="edgeStyle=orthogonalEdgeStyle;rounded=0;orthogonalLoop=1;jettySize=auto;html=1;exitX=0;exitY=0.5;exitDx=0;exitDy=0;entryX=0.5;entryY=0;entryDx=0;entryDy=0;" edge="1" parent="1" source="59dFEwwqqe-RQWfW4AhT-207" target="59dFEwwqqe-RQWfW4AhT-21">
          <mxGeometry relative="1" as="geometry" />
        </mxCell>
        <mxCell id="59dFEwwqqe-RQWfW4AhT-207" value="Утечка" style="rounded=1;whiteSpace=wrap;html=1;fillColor=#f8cecc;strokeColor=#b85450;" vertex="1" parent="1">
          <mxGeometry x="1080" y="170" width="120" height="28" as="geometry" />
        </mxCell>
        <mxCell id="59dFEwwqqe-RQWfW4AhT-208" style="edgeStyle=orthogonalEdgeStyle;rounded=0;orthogonalLoop=1;jettySize=auto;html=1;exitX=0;exitY=0.5;exitDx=0;exitDy=0;entryX=0.75;entryY=0;entryDx=0;entryDy=0;" edge="1" parent="1" source="59dFEwwqqe-RQWfW4AhT-209" target="59dFEwwqqe-RQWfW4AhT-21">
          <mxGeometry relative="1" as="geometry" />
        </mxCell>
        <mxCell id="59dFEwwqqe-RQWfW4AhT-209" value="Потеря" style="rounded=1;whiteSpace=wrap;html=1;fillColor=#f8cecc;strokeColor=#b85450;" vertex="1" parent="1">
          <mxGeometry x="1080" y="210" width="120" height="22" as="geometry" />
        </mxCell>
        <mxCell id="59dFEwwqqe-RQWfW4AhT-210" style="edgeStyle=orthogonalEdgeStyle;rounded=0;orthogonalLoop=1;jettySize=auto;html=1;exitX=0;exitY=0.5;exitDx=0;exitDy=0;entryX=1;entryY=0.25;entryDx=0;entryDy=0;" edge="1" parent="1" source="59dFEwwqqe-RQWfW4AhT-211" target="59dFEwwqqe-RQWfW4AhT-21">
          <mxGeometry relative="1" as="geometry">
            <Array as="points">
              <mxPoint x="1080" y="255" />
              <mxPoint x="1080" y="275" />
            </Array>
          </mxGeometry>
        </mxCell>
        <mxCell id="59dFEwwqqe-RQWfW4AhT-211" value="Искажение" style="rounded=1;whiteSpace=wrap;html=1;fillColor=#f8cecc;strokeColor=#b85450;" vertex="1" parent="1">
          <mxGeometry x="1080" y="241" width="120" height="28" as="geometry" />
        </mxCell>
        <mxCell id="59dFEwwqqe-RQWfW4AhT-212" value="Некачественные данные" style="rounded=1;whiteSpace=wrap;html=1;fillColor=#f8cecc;strokeColor=#b85450;" vertex="1" parent="1">
          <mxGeometry x="1080" y="278" width="120" height="34" as="geometry" />
        </mxCell>
        <mxCell id="59dFEwwqqe-RQWfW4AhT-213" value="" style="edgeStyle=orthogonalEdgeStyle;rounded=0;orthogonalLoop=1;jettySize=auto;html=1;" edge="1" parent="1" source="59dFEwwqqe-RQWfW4AhT-214" target="59dFEwwqqe-RQWfW4AhT-212">
          <mxGeometry relative="1" as="geometry" />
        </mxCell>
        <mxCell id="59dFEwwqqe-RQWfW4AhT-214" value="Незначителоьный" style="rounded=1;whiteSpace=wrap;html=1;fillColor=#e1d5e7;strokeColor=#9673a6;" vertex="1" parent="1">
          <mxGeometry x="1320" y="284" width="120" height="28" as="geometry" />
        </mxCell>
        <mxCell id="59dFEwwqqe-RQWfW4AhT-215" value="" style="edgeStyle=orthogonalEdgeStyle;rounded=0;orthogonalLoop=1;jettySize=auto;html=1;" edge="1" parent="1" source="59dFEwwqqe-RQWfW4AhT-216" target="59dFEwwqqe-RQWfW4AhT-211">
          <mxGeometry relative="1" as="geometry" />
        </mxCell>
        <mxCell id="59dFEwwqqe-RQWfW4AhT-216" value="Незначительный" style="rounded=1;whiteSpace=wrap;html=1;fillColor=#e1d5e7;strokeColor=#9673a6;" vertex="1" parent="1">
          <mxGeometry x="1320" y="241" width="120" height="28" as="geometry" />
        </mxCell>
        <mxCell id="59dFEwwqqe-RQWfW4AhT-217" value="" style="edgeStyle=orthogonalEdgeStyle;rounded=0;orthogonalLoop=1;jettySize=auto;html=1;entryX=1;entryY=0.5;entryDx=0;entryDy=0;" edge="1" parent="1" source="59dFEwwqqe-RQWfW4AhT-218" target="59dFEwwqqe-RQWfW4AhT-209">
          <mxGeometry relative="1" as="geometry">
            <mxPoint x="1340" y="221" as="targetPoint" />
          </mxGeometry>
        </mxCell>
        <mxCell id="59dFEwwqqe-RQWfW4AhT-218" value="Значительный" style="rounded=1;whiteSpace=wrap;html=1;fillColor=#e1d5e7;strokeColor=#9673a6;" vertex="1" parent="1">
          <mxGeometry x="1320" y="204" width="120" height="28" as="geometry" />
        </mxCell>
        <mxCell id="59dFEwwqqe-RQWfW4AhT-219" value="" style="edgeStyle=orthogonalEdgeStyle;rounded=0;orthogonalLoop=1;jettySize=auto;html=1;" edge="1" parent="1" source="59dFEwwqqe-RQWfW4AhT-220" target="59dFEwwqqe-RQWfW4AhT-207">
          <mxGeometry relative="1" as="geometry" />
        </mxCell>
        <mxCell id="59dFEwwqqe-RQWfW4AhT-220" value="Значительный" style="rounded=1;whiteSpace=wrap;html=1;fillColor=#e1d5e7;strokeColor=#9673a6;" vertex="1" parent="1">
          <mxGeometry x="1320" y="170" width="120" height="28" as="geometry" />
        </mxCell>
        <mxCell id="59dFEwwqqe-RQWfW4AhT-221" style="edgeStyle=orthogonalEdgeStyle;rounded=0;orthogonalLoop=1;jettySize=auto;html=1;exitX=0;exitY=0.5;exitDx=0;exitDy=0;entryX=1;entryY=0.75;entryDx=0;entryDy=0;" edge="1" parent="1" source="59dFEwwqqe-RQWfW4AhT-212" target="59dFEwwqqe-RQWfW4AhT-21">
          <mxGeometry relative="1" as="geometry" />
        </mxCell>
        <mxCell id="59dFEwwqqe-RQWfW4AhT-222" style="edgeStyle=orthogonalEdgeStyle;rounded=0;orthogonalLoop=1;jettySize=auto;html=1;exitX=0;exitY=0.5;exitDx=0;exitDy=0;" edge="1" parent="1" source="59dFEwwqqe-RQWfW4AhT-223" target="59dFEwwqqe-RQWfW4AhT-220">
          <mxGeometry relative="1" as="geometry" />
        </mxCell>
        <mxCell id="59dFEwwqqe-RQWfW4AhT-223" value="Репутационные, финансовые, судебные" style="rounded=1;whiteSpace=wrap;html=1;" vertex="1" parent="1">
          <mxGeometry x="1545" y="168" width="120" height="47" as="geometry" />
        </mxCell>
        <mxCell id="59dFEwwqqe-RQWfW4AhT-224" style="edgeStyle=orthogonalEdgeStyle;rounded=0;orthogonalLoop=1;jettySize=auto;html=1;exitX=0.083;exitY=0.575;exitDx=0;exitDy=0;entryX=1;entryY=0.5;entryDx=0;entryDy=0;exitPerimeter=0;" edge="1" parent="1" source="59dFEwwqqe-RQWfW4AhT-225" target="59dFEwwqqe-RQWfW4AhT-218">
          <mxGeometry relative="1" as="geometry">
            <mxPoint x="1820" y="234" as="sourcePoint" />
          </mxGeometry>
        </mxCell>
        <mxCell id="59dFEwwqqe-RQWfW4AhT-225" value="Репутационные, финансовые" style="rounded=1;whiteSpace=wrap;html=1;" vertex="1" parent="1">
          <mxGeometry x="1545" y="221" width="120" height="39" as="geometry" />
        </mxCell>
        <mxCell id="59dFEwwqqe-RQWfW4AhT-226" style="edgeStyle=orthogonalEdgeStyle;rounded=0;orthogonalLoop=1;jettySize=auto;html=1;exitX=0;exitY=0.75;exitDx=0;exitDy=0;entryX=1;entryY=0.5;entryDx=0;entryDy=0;" edge="1" parent="1" source="59dFEwwqqe-RQWfW4AhT-228" target="59dFEwwqqe-RQWfW4AhT-214">
          <mxGeometry relative="1" as="geometry" />
        </mxCell>
        <mxCell id="59dFEwwqqe-RQWfW4AhT-227" style="edgeStyle=orthogonalEdgeStyle;rounded=0;orthogonalLoop=1;jettySize=auto;html=1;exitX=0;exitY=0.5;exitDx=0;exitDy=0;entryX=1;entryY=0.5;entryDx=0;entryDy=0;" edge="1" parent="1" source="59dFEwwqqe-RQWfW4AhT-228" target="59dFEwwqqe-RQWfW4AhT-216">
          <mxGeometry relative="1" as="geometry" />
        </mxCell>
        <mxCell id="59dFEwwqqe-RQWfW4AhT-228" value="Кратковременное нарушение пользовательских сценариев" style="rounded=1;whiteSpace=wrap;html=1;" vertex="1" parent="1">
          <mxGeometry x="1490" y="272.5" width="200" height="35" as="geometry" />
        </mxCell>
        <mxCell id="59dFEwwqqe-RQWfW4AhT-278" style="edgeStyle=orthogonalEdgeStyle;rounded=0;orthogonalLoop=1;jettySize=auto;html=1;exitX=1;exitY=0.5;exitDx=0;exitDy=0;entryX=0.156;entryY=0.988;entryDx=0;entryDy=0;entryPerimeter=0;" edge="1" parent="1" source="59dFEwwqqe-RQWfW4AhT-230" target="59dFEwwqqe-RQWfW4AhT-19">
          <mxGeometry relative="1" as="geometry">
            <mxPoint x="460" y="960" as="targetPoint" />
          </mxGeometry>
        </mxCell>
        <mxCell id="59dFEwwqqe-RQWfW4AhT-282" style="edgeStyle=orthogonalEdgeStyle;rounded=0;orthogonalLoop=1;jettySize=auto;html=1;exitX=0;exitY=0.5;exitDx=0;exitDy=0;entryX=1;entryY=0.5;entryDx=0;entryDy=0;startArrow=classic;startFill=1;endArrow=none;endFill=0;" edge="1" parent="1" source="59dFEwwqqe-RQWfW4AhT-230" target="59dFEwwqqe-RQWfW4AhT-244">
          <mxGeometry relative="1" as="geometry" />
        </mxCell>
        <mxCell id="59dFEwwqqe-RQWfW4AhT-230" value="Утечка" style="rounded=1;whiteSpace=wrap;html=1;fillColor=#f8cecc;strokeColor=#b85450;" vertex="1" parent="1">
          <mxGeometry x="240" y="1145.5" width="120" height="27" as="geometry" />
        </mxCell>
        <mxCell id="59dFEwwqqe-RQWfW4AhT-279" style="edgeStyle=orthogonalEdgeStyle;rounded=0;orthogonalLoop=1;jettySize=auto;html=1;exitX=1;exitY=0.5;exitDx=0;exitDy=0;entryX=0.404;entryY=0.979;entryDx=0;entryDy=0;entryPerimeter=0;" edge="1" parent="1" source="59dFEwwqqe-RQWfW4AhT-232" target="59dFEwwqqe-RQWfW4AhT-19">
          <mxGeometry relative="1" as="geometry">
            <mxPoint x="480" y="1020" as="targetPoint" />
          </mxGeometry>
        </mxCell>
        <mxCell id="59dFEwwqqe-RQWfW4AhT-232" value="Потеря" style="rounded=1;whiteSpace=wrap;html=1;fillColor=#f8cecc;strokeColor=#b85450;" vertex="1" parent="1">
          <mxGeometry x="240" y="1184.5" width="120" height="27" as="geometry" />
        </mxCell>
        <mxCell id="59dFEwwqqe-RQWfW4AhT-280" style="edgeStyle=orthogonalEdgeStyle;rounded=0;orthogonalLoop=1;jettySize=auto;html=1;exitX=1;exitY=0.5;exitDx=0;exitDy=0;entryX=0.594;entryY=0.979;entryDx=0;entryDy=0;entryPerimeter=0;" edge="1" parent="1" source="59dFEwwqqe-RQWfW4AhT-234" target="59dFEwwqqe-RQWfW4AhT-19">
          <mxGeometry relative="1" as="geometry">
            <mxPoint x="500" y="1040" as="targetPoint" />
          </mxGeometry>
        </mxCell>
        <mxCell id="59dFEwwqqe-RQWfW4AhT-234" value="Искажение" style="rounded=1;whiteSpace=wrap;html=1;fillColor=#f8cecc;strokeColor=#b85450;" vertex="1" parent="1">
          <mxGeometry x="240" y="1222.5" width="120" height="27" as="geometry" />
        </mxCell>
        <mxCell id="59dFEwwqqe-RQWfW4AhT-281" style="edgeStyle=orthogonalEdgeStyle;rounded=0;orthogonalLoop=1;jettySize=auto;html=1;exitX=1;exitY=0.5;exitDx=0;exitDy=0;entryX=0.799;entryY=0.988;entryDx=0;entryDy=0;entryPerimeter=0;" edge="1" parent="1" source="59dFEwwqqe-RQWfW4AhT-236" target="59dFEwwqqe-RQWfW4AhT-19">
          <mxGeometry relative="1" as="geometry">
            <mxPoint x="540" y="1220" as="targetPoint" />
          </mxGeometry>
        </mxCell>
        <mxCell id="59dFEwwqqe-RQWfW4AhT-236" value="Некачественные данные" style="rounded=1;whiteSpace=wrap;html=1;fillColor=#f8cecc;strokeColor=#b85450;" vertex="1" parent="1">
          <mxGeometry x="240" y="1261.5" width="120" height="44" as="geometry" />
        </mxCell>
        <mxCell id="59dFEwwqqe-RQWfW4AhT-285" style="edgeStyle=orthogonalEdgeStyle;rounded=0;orthogonalLoop=1;jettySize=auto;html=1;exitX=1;exitY=0.5;exitDx=0;exitDy=0;" edge="1" parent="1" source="59dFEwwqqe-RQWfW4AhT-238" target="59dFEwwqqe-RQWfW4AhT-236">
          <mxGeometry relative="1" as="geometry" />
        </mxCell>
        <mxCell id="59dFEwwqqe-RQWfW4AhT-238" value="Значительный" style="rounded=1;whiteSpace=wrap;html=1;fillColor=#e1d5e7;strokeColor=#9673a6;" vertex="1" parent="1">
          <mxGeometry x="-125" y="1270" width="120" height="27" as="geometry" />
        </mxCell>
        <mxCell id="59dFEwwqqe-RQWfW4AhT-284" style="edgeStyle=orthogonalEdgeStyle;rounded=0;orthogonalLoop=1;jettySize=auto;html=1;exitX=1;exitY=0.5;exitDx=0;exitDy=0;" edge="1" parent="1" source="59dFEwwqqe-RQWfW4AhT-240" target="59dFEwwqqe-RQWfW4AhT-234">
          <mxGeometry relative="1" as="geometry" />
        </mxCell>
        <mxCell id="59dFEwwqqe-RQWfW4AhT-240" value="Значительный" style="rounded=1;whiteSpace=wrap;html=1;fillColor=#e1d5e7;strokeColor=#9673a6;" vertex="1" parent="1">
          <mxGeometry x="-125" y="1222.5" width="120" height="27" as="geometry" />
        </mxCell>
        <mxCell id="59dFEwwqqe-RQWfW4AhT-283" style="edgeStyle=orthogonalEdgeStyle;rounded=0;orthogonalLoop=1;jettySize=auto;html=1;exitX=1;exitY=0.5;exitDx=0;exitDy=0;entryX=0;entryY=0.5;entryDx=0;entryDy=0;" edge="1" parent="1" source="59dFEwwqqe-RQWfW4AhT-242" target="59dFEwwqqe-RQWfW4AhT-232">
          <mxGeometry relative="1" as="geometry" />
        </mxCell>
        <mxCell id="59dFEwwqqe-RQWfW4AhT-242" value="Значительный" style="rounded=1;whiteSpace=wrap;html=1;fillColor=#e1d5e7;strokeColor=#9673a6;" vertex="1" parent="1">
          <mxGeometry x="-125" y="1185.5" width="120" height="26" as="geometry" />
        </mxCell>
        <mxCell id="59dFEwwqqe-RQWfW4AhT-244" value="Значительный" style="rounded=1;whiteSpace=wrap;html=1;fillColor=#e1d5e7;strokeColor=#9673a6;" vertex="1" parent="1">
          <mxGeometry x="-125" y="1145.5" width="120" height="27" as="geometry" />
        </mxCell>
        <mxCell id="59dFEwwqqe-RQWfW4AhT-287" style="edgeStyle=orthogonalEdgeStyle;rounded=0;orthogonalLoop=1;jettySize=auto;html=1;exitX=1;exitY=0.25;exitDx=0;exitDy=0;" edge="1" parent="1" source="59dFEwwqqe-RQWfW4AhT-247">
          <mxGeometry relative="1" as="geometry">
            <mxPoint x="-130" y="1160.2857142857142" as="targetPoint" />
          </mxGeometry>
        </mxCell>
        <mxCell id="59dFEwwqqe-RQWfW4AhT-288" style="edgeStyle=orthogonalEdgeStyle;rounded=0;orthogonalLoop=1;jettySize=auto;html=1;exitX=1;exitY=0.75;exitDx=0;exitDy=0;" edge="1" parent="1" source="59dFEwwqqe-RQWfW4AhT-247">
          <mxGeometry relative="1" as="geometry">
            <mxPoint x="-130" y="1190.5714285714284" as="targetPoint" />
          </mxGeometry>
        </mxCell>
        <mxCell id="59dFEwwqqe-RQWfW4AhT-247" value="Репутационные, финансовые, судебные" style="rounded=1;whiteSpace=wrap;html=1;" vertex="1" parent="1">
          <mxGeometry x="-280" y="1145.5" width="120" height="60" as="geometry" />
        </mxCell>
        <mxCell id="59dFEwwqqe-RQWfW4AhT-289" style="edgeStyle=orthogonalEdgeStyle;rounded=0;orthogonalLoop=1;jettySize=auto;html=1;exitX=1;exitY=0.25;exitDx=0;exitDy=0;entryX=0;entryY=0.25;entryDx=0;entryDy=0;" edge="1" parent="1" source="59dFEwwqqe-RQWfW4AhT-250" target="59dFEwwqqe-RQWfW4AhT-240">
          <mxGeometry relative="1" as="geometry">
            <Array as="points">
              <mxPoint x="-148" y="1252" />
              <mxPoint x="-148" y="1236" />
              <mxPoint x="-125" y="1236" />
            </Array>
          </mxGeometry>
        </mxCell>
        <mxCell id="59dFEwwqqe-RQWfW4AhT-290" style="edgeStyle=orthogonalEdgeStyle;rounded=0;orthogonalLoop=1;jettySize=auto;html=1;exitX=1;exitY=0.75;exitDx=0;exitDy=0;" edge="1" parent="1" source="59dFEwwqqe-RQWfW4AhT-250">
          <mxGeometry relative="1" as="geometry">
            <mxPoint x="-124.42857142857133" y="1281.1428571428573" as="targetPoint" />
          </mxGeometry>
        </mxCell>
        <mxCell id="59dFEwwqqe-RQWfW4AhT-250" value="Репутационные, финансовые" style="rounded=1;whiteSpace=wrap;html=1;" vertex="1" parent="1">
          <mxGeometry x="-290" y="1237" width="120" height="60" as="geometry" />
        </mxCell>
        <mxCell id="59dFEwwqqe-RQWfW4AhT-251" style="edgeStyle=orthogonalEdgeStyle;rounded=0;orthogonalLoop=1;jettySize=auto;html=1;exitX=0;exitY=0.5;exitDx=0;exitDy=0;entryX=0.25;entryY=0;entryDx=0;entryDy=0;" edge="1" parent="1" source="59dFEwwqqe-RQWfW4AhT-252" target="59dFEwwqqe-RQWfW4AhT-17">
          <mxGeometry relative="1" as="geometry">
            <mxPoint x="1220" y="-462.5" as="sourcePoint" />
          </mxGeometry>
        </mxCell>
        <mxCell id="59dFEwwqqe-RQWfW4AhT-252" value="Утечка" style="rounded=1;whiteSpace=wrap;html=1;fillColor=#f8cecc;strokeColor=#b85450;" vertex="1" parent="1">
          <mxGeometry x="1080" y="-185" width="120" height="27" as="geometry" />
        </mxCell>
        <mxCell id="59dFEwwqqe-RQWfW4AhT-253" style="edgeStyle=orthogonalEdgeStyle;rounded=0;orthogonalLoop=1;jettySize=auto;html=1;exitX=0;exitY=0.5;exitDx=0;exitDy=0;entryX=0.75;entryY=0;entryDx=0;entryDy=0;" edge="1" parent="1" source="59dFEwwqqe-RQWfW4AhT-254" target="59dFEwwqqe-RQWfW4AhT-17">
          <mxGeometry relative="1" as="geometry" />
        </mxCell>
        <mxCell id="59dFEwwqqe-RQWfW4AhT-254" value="Потеря" style="rounded=1;whiteSpace=wrap;html=1;fillColor=#f8cecc;strokeColor=#b85450;" vertex="1" parent="1">
          <mxGeometry x="1080" y="-145" width="120" height="27" as="geometry" />
        </mxCell>
        <mxCell id="59dFEwwqqe-RQWfW4AhT-255" style="edgeStyle=orthogonalEdgeStyle;rounded=0;orthogonalLoop=1;jettySize=auto;html=1;exitX=0;exitY=0.5;exitDx=0;exitDy=0;entryX=1;entryY=0.5;entryDx=0;entryDy=0;" edge="1" parent="1" source="59dFEwwqqe-RQWfW4AhT-256" target="59dFEwwqqe-RQWfW4AhT-17">
          <mxGeometry relative="1" as="geometry" />
        </mxCell>
        <mxCell id="59dFEwwqqe-RQWfW4AhT-256" value="Искажение" style="rounded=1;whiteSpace=wrap;html=1;fillColor=#f8cecc;strokeColor=#b85450;" vertex="1" parent="1">
          <mxGeometry x="1080" y="-104.5" width="120" height="27" as="geometry" />
        </mxCell>
        <mxCell id="59dFEwwqqe-RQWfW4AhT-257" style="edgeStyle=orthogonalEdgeStyle;rounded=0;orthogonalLoop=1;jettySize=auto;html=1;entryX=1;entryY=0.75;entryDx=0;entryDy=0;" edge="1" parent="1" source="59dFEwwqqe-RQWfW4AhT-258" target="59dFEwwqqe-RQWfW4AhT-17">
          <mxGeometry relative="1" as="geometry" />
        </mxCell>
        <mxCell id="59dFEwwqqe-RQWfW4AhT-258" value="Некачественные данные" style="rounded=1;whiteSpace=wrap;html=1;fillColor=#f8cecc;strokeColor=#b85450;" vertex="1" parent="1">
          <mxGeometry x="1080" y="-55" width="120" height="34" as="geometry" />
        </mxCell>
        <mxCell id="59dFEwwqqe-RQWfW4AhT-259" value="" style="edgeStyle=orthogonalEdgeStyle;rounded=0;orthogonalLoop=1;jettySize=auto;html=1;" edge="1" parent="1" source="59dFEwwqqe-RQWfW4AhT-260" target="59dFEwwqqe-RQWfW4AhT-258">
          <mxGeometry relative="1" as="geometry" />
        </mxCell>
        <mxCell id="59dFEwwqqe-RQWfW4AhT-260" value="Значительный" style="rounded=1;whiteSpace=wrap;html=1;fillColor=#e1d5e7;strokeColor=#9673a6;" vertex="1" parent="1">
          <mxGeometry x="1320" y="-55" width="120" height="27" as="geometry" />
        </mxCell>
        <mxCell id="59dFEwwqqe-RQWfW4AhT-261" value="" style="edgeStyle=orthogonalEdgeStyle;rounded=0;orthogonalLoop=1;jettySize=auto;html=1;" edge="1" parent="1" source="59dFEwwqqe-RQWfW4AhT-262" target="59dFEwwqqe-RQWfW4AhT-256">
          <mxGeometry relative="1" as="geometry" />
        </mxCell>
        <mxCell id="59dFEwwqqe-RQWfW4AhT-262" value="Значительный" style="rounded=1;whiteSpace=wrap;html=1;fillColor=#e1d5e7;strokeColor=#9673a6;" vertex="1" parent="1">
          <mxGeometry x="1320" y="-91" width="120" height="27" as="geometry" />
        </mxCell>
        <mxCell id="59dFEwwqqe-RQWfW4AhT-263" value="" style="edgeStyle=orthogonalEdgeStyle;rounded=0;orthogonalLoop=1;jettySize=auto;html=1;" edge="1" parent="1" source="59dFEwwqqe-RQWfW4AhT-264" target="59dFEwwqqe-RQWfW4AhT-254">
          <mxGeometry relative="1" as="geometry" />
        </mxCell>
        <mxCell id="59dFEwwqqe-RQWfW4AhT-264" value="Значительный" style="rounded=1;whiteSpace=wrap;html=1;fillColor=#e1d5e7;strokeColor=#9673a6;" vertex="1" parent="1">
          <mxGeometry x="1320" y="-132" width="120" height="27" as="geometry" />
        </mxCell>
        <mxCell id="59dFEwwqqe-RQWfW4AhT-265" value="" style="edgeStyle=orthogonalEdgeStyle;rounded=0;orthogonalLoop=1;jettySize=auto;html=1;entryX=1;entryY=0.5;entryDx=0;entryDy=0;" edge="1" parent="1" source="59dFEwwqqe-RQWfW4AhT-266" target="59dFEwwqqe-RQWfW4AhT-252">
          <mxGeometry relative="1" as="geometry">
            <mxPoint x="1500" y="-157.5" as="sourcePoint" />
            <mxPoint x="1340" y="-157.5" as="targetPoint" />
          </mxGeometry>
        </mxCell>
        <mxCell id="59dFEwwqqe-RQWfW4AhT-266" value="Значительный" style="rounded=1;whiteSpace=wrap;html=1;fillColor=#e1d5e7;strokeColor=#9673a6;" vertex="1" parent="1">
          <mxGeometry x="1320" y="-175" width="120" height="27" as="geometry" />
        </mxCell>
        <mxCell id="59dFEwwqqe-RQWfW4AhT-267" style="edgeStyle=orthogonalEdgeStyle;rounded=0;orthogonalLoop=1;jettySize=auto;html=1;exitX=0;exitY=0.25;exitDx=0;exitDy=0;entryX=1;entryY=0.5;entryDx=0;entryDy=0;" edge="1" parent="1" source="59dFEwwqqe-RQWfW4AhT-269" target="59dFEwwqqe-RQWfW4AhT-266">
          <mxGeometry relative="1" as="geometry">
            <mxPoint x="1620" y="-157" as="targetPoint" />
          </mxGeometry>
        </mxCell>
        <mxCell id="59dFEwwqqe-RQWfW4AhT-268" style="edgeStyle=orthogonalEdgeStyle;rounded=0;orthogonalLoop=1;jettySize=auto;html=1;exitX=0;exitY=0.75;exitDx=0;exitDy=0;entryX=1;entryY=0.5;entryDx=0;entryDy=0;" edge="1" parent="1" source="59dFEwwqqe-RQWfW4AhT-269" target="59dFEwwqqe-RQWfW4AhT-264">
          <mxGeometry relative="1" as="geometry" />
        </mxCell>
        <mxCell id="59dFEwwqqe-RQWfW4AhT-269" value="Репутационные, финансовые, судебные" style="rounded=1;whiteSpace=wrap;html=1;" vertex="1" parent="1">
          <mxGeometry x="1535" y="-169" width="120" height="60" as="geometry" />
        </mxCell>
        <mxCell id="59dFEwwqqe-RQWfW4AhT-270" style="edgeStyle=orthogonalEdgeStyle;rounded=0;orthogonalLoop=1;jettySize=auto;html=1;exitX=0;exitY=0.25;exitDx=0;exitDy=0;" edge="1" parent="1" source="59dFEwwqqe-RQWfW4AhT-272" target="59dFEwwqqe-RQWfW4AhT-262">
          <mxGeometry relative="1" as="geometry" />
        </mxCell>
        <mxCell id="59dFEwwqqe-RQWfW4AhT-271" style="edgeStyle=orthogonalEdgeStyle;rounded=0;orthogonalLoop=1;jettySize=auto;html=1;exitX=0;exitY=0.75;exitDx=0;exitDy=0;" edge="1" parent="1" source="59dFEwwqqe-RQWfW4AhT-272" target="59dFEwwqqe-RQWfW4AhT-260">
          <mxGeometry relative="1" as="geometry" />
        </mxCell>
        <mxCell id="59dFEwwqqe-RQWfW4AhT-272" value="Репутационные, финансовые" style="rounded=1;whiteSpace=wrap;html=1;" vertex="1" parent="1">
          <mxGeometry x="1535" y="-92" width="120" height="60" as="geometry" />
        </mxCell>
        <mxCell id="59dFEwwqqe-RQWfW4AhT-291" value="Бухгалтерия компании" style="rounded=1;whiteSpace=wrap;html=1;fillColor=#fff2cc;strokeColor=#d6b656;" vertex="1" parent="1">
          <mxGeometry x="869" y="88" width="120" height="60" as="geometry" />
        </mxCell>
        <mxCell id="59dFEwwqqe-RQWfW4AhT-292" style="edgeStyle=orthogonalEdgeStyle;rounded=0;orthogonalLoop=1;jettySize=auto;html=1;exitX=0;exitY=0.5;exitDx=0;exitDy=0;entryX=0.25;entryY=0;entryDx=0;entryDy=0;" edge="1" parent="1" source="59dFEwwqqe-RQWfW4AhT-293" target="59dFEwwqqe-RQWfW4AhT-291">
          <mxGeometry relative="1" as="geometry">
            <mxPoint x="1219" y="-286.5" as="sourcePoint" />
          </mxGeometry>
        </mxCell>
        <mxCell id="59dFEwwqqe-RQWfW4AhT-293" value="Утечка" style="rounded=1;whiteSpace=wrap;html=1;fillColor=#f8cecc;strokeColor=#b85450;" vertex="1" parent="1">
          <mxGeometry x="1079" y="-9" width="120" height="27" as="geometry" />
        </mxCell>
        <mxCell id="59dFEwwqqe-RQWfW4AhT-294" style="edgeStyle=orthogonalEdgeStyle;rounded=0;orthogonalLoop=1;jettySize=auto;html=1;exitX=0;exitY=0.5;exitDx=0;exitDy=0;entryX=0.75;entryY=0;entryDx=0;entryDy=0;" edge="1" parent="1" source="59dFEwwqqe-RQWfW4AhT-295" target="59dFEwwqqe-RQWfW4AhT-291">
          <mxGeometry relative="1" as="geometry" />
        </mxCell>
        <mxCell id="59dFEwwqqe-RQWfW4AhT-295" value="Потеря" style="rounded=1;whiteSpace=wrap;html=1;fillColor=#f8cecc;strokeColor=#b85450;" vertex="1" parent="1">
          <mxGeometry x="1079" y="31" width="120" height="27" as="geometry" />
        </mxCell>
        <mxCell id="59dFEwwqqe-RQWfW4AhT-296" style="edgeStyle=orthogonalEdgeStyle;rounded=0;orthogonalLoop=1;jettySize=auto;html=1;exitX=0;exitY=0.5;exitDx=0;exitDy=0;entryX=1;entryY=0.5;entryDx=0;entryDy=0;" edge="1" parent="1" source="59dFEwwqqe-RQWfW4AhT-297" target="59dFEwwqqe-RQWfW4AhT-291">
          <mxGeometry relative="1" as="geometry" />
        </mxCell>
        <mxCell id="59dFEwwqqe-RQWfW4AhT-297" value="Искажение" style="rounded=1;whiteSpace=wrap;html=1;fillColor=#f8cecc;strokeColor=#b85450;" vertex="1" parent="1">
          <mxGeometry x="1079" y="71.5" width="120" height="27" as="geometry" />
        </mxCell>
        <mxCell id="59dFEwwqqe-RQWfW4AhT-298" style="edgeStyle=orthogonalEdgeStyle;rounded=0;orthogonalLoop=1;jettySize=auto;html=1;entryX=1;entryY=0.75;entryDx=0;entryDy=0;" edge="1" parent="1" source="59dFEwwqqe-RQWfW4AhT-299" target="59dFEwwqqe-RQWfW4AhT-291">
          <mxGeometry relative="1" as="geometry" />
        </mxCell>
        <mxCell id="59dFEwwqqe-RQWfW4AhT-299" value="Некачественные данные" style="rounded=1;whiteSpace=wrap;html=1;fillColor=#f8cecc;strokeColor=#b85450;" vertex="1" parent="1">
          <mxGeometry x="1079" y="121" width="120" height="34" as="geometry" />
        </mxCell>
        <mxCell id="59dFEwwqqe-RQWfW4AhT-300" value="" style="edgeStyle=orthogonalEdgeStyle;rounded=0;orthogonalLoop=1;jettySize=auto;html=1;" edge="1" parent="1" source="59dFEwwqqe-RQWfW4AhT-301" target="59dFEwwqqe-RQWfW4AhT-299">
          <mxGeometry relative="1" as="geometry" />
        </mxCell>
        <mxCell id="59dFEwwqqe-RQWfW4AhT-301" value="Значительный" style="rounded=1;whiteSpace=wrap;html=1;fillColor=#e1d5e7;strokeColor=#9673a6;" vertex="1" parent="1">
          <mxGeometry x="1319" y="121" width="120" height="27" as="geometry" />
        </mxCell>
        <mxCell id="59dFEwwqqe-RQWfW4AhT-302" value="" style="edgeStyle=orthogonalEdgeStyle;rounded=0;orthogonalLoop=1;jettySize=auto;html=1;" edge="1" parent="1" source="59dFEwwqqe-RQWfW4AhT-303" target="59dFEwwqqe-RQWfW4AhT-297">
          <mxGeometry relative="1" as="geometry" />
        </mxCell>
        <mxCell id="59dFEwwqqe-RQWfW4AhT-303" value="Значительный" style="rounded=1;whiteSpace=wrap;html=1;fillColor=#e1d5e7;strokeColor=#9673a6;" vertex="1" parent="1">
          <mxGeometry x="1319" y="85" width="120" height="27" as="geometry" />
        </mxCell>
        <mxCell id="59dFEwwqqe-RQWfW4AhT-304" value="" style="edgeStyle=orthogonalEdgeStyle;rounded=0;orthogonalLoop=1;jettySize=auto;html=1;" edge="1" parent="1" source="59dFEwwqqe-RQWfW4AhT-305" target="59dFEwwqqe-RQWfW4AhT-295">
          <mxGeometry relative="1" as="geometry" />
        </mxCell>
        <mxCell id="59dFEwwqqe-RQWfW4AhT-305" value="Значительный" style="rounded=1;whiteSpace=wrap;html=1;fillColor=#e1d5e7;strokeColor=#9673a6;" vertex="1" parent="1">
          <mxGeometry x="1319" y="44" width="120" height="27" as="geometry" />
        </mxCell>
        <mxCell id="59dFEwwqqe-RQWfW4AhT-306" value="" style="edgeStyle=orthogonalEdgeStyle;rounded=0;orthogonalLoop=1;jettySize=auto;html=1;entryX=1;entryY=0.5;entryDx=0;entryDy=0;" edge="1" parent="1" source="59dFEwwqqe-RQWfW4AhT-307" target="59dFEwwqqe-RQWfW4AhT-293">
          <mxGeometry relative="1" as="geometry">
            <mxPoint x="1499" y="18.5" as="sourcePoint" />
            <mxPoint x="1339" y="18.5" as="targetPoint" />
          </mxGeometry>
        </mxCell>
        <mxCell id="59dFEwwqqe-RQWfW4AhT-307" value="Значительный" style="rounded=1;whiteSpace=wrap;html=1;fillColor=#e1d5e7;strokeColor=#9673a6;" vertex="1" parent="1">
          <mxGeometry x="1319" y="1" width="120" height="27" as="geometry" />
        </mxCell>
        <mxCell id="59dFEwwqqe-RQWfW4AhT-314" style="edgeStyle=orthogonalEdgeStyle;rounded=0;orthogonalLoop=1;jettySize=auto;html=1;exitX=0;exitY=0.25;exitDx=0;exitDy=0;entryX=1;entryY=0.25;entryDx=0;entryDy=0;" edge="1" parent="1" source="59dFEwwqqe-RQWfW4AhT-310" target="59dFEwwqqe-RQWfW4AhT-307">
          <mxGeometry relative="1" as="geometry">
            <Array as="points">
              <mxPoint x="1560" y="50" />
              <mxPoint x="1499" y="50" />
              <mxPoint x="1499" y="8" />
            </Array>
          </mxGeometry>
        </mxCell>
        <mxCell id="59dFEwwqqe-RQWfW4AhT-315" style="edgeStyle=orthogonalEdgeStyle;rounded=0;orthogonalLoop=1;jettySize=auto;html=1;exitX=0;exitY=0.5;exitDx=0;exitDy=0;" edge="1" parent="1" source="59dFEwwqqe-RQWfW4AhT-310">
          <mxGeometry relative="1" as="geometry">
            <mxPoint x="1440" y="60" as="targetPoint" />
            <Array as="points">
              <mxPoint x="1501" y="68" />
              <mxPoint x="1501" y="60" />
            </Array>
          </mxGeometry>
        </mxCell>
        <mxCell id="59dFEwwqqe-RQWfW4AhT-316" style="edgeStyle=orthogonalEdgeStyle;rounded=0;orthogonalLoop=1;jettySize=auto;html=1;exitX=-0.002;exitY=0.639;exitDx=0;exitDy=0;exitPerimeter=0;" edge="1" parent="1" source="59dFEwwqqe-RQWfW4AhT-310">
          <mxGeometry relative="1" as="geometry">
            <mxPoint x="1440" y="100" as="targetPoint" />
            <Array as="points">
              <mxPoint x="1500" y="77" />
              <mxPoint x="1500" y="100" />
            </Array>
          </mxGeometry>
        </mxCell>
        <mxCell id="59dFEwwqqe-RQWfW4AhT-317" style="edgeStyle=orthogonalEdgeStyle;rounded=0;orthogonalLoop=1;jettySize=auto;html=1;exitX=0;exitY=0.75;exitDx=0;exitDy=0;" edge="1" parent="1" source="59dFEwwqqe-RQWfW4AhT-310">
          <mxGeometry relative="1" as="geometry">
            <mxPoint x="1440" y="140" as="targetPoint" />
            <Array as="points">
              <mxPoint x="1510" y="84" />
              <mxPoint x="1510" y="140" />
            </Array>
          </mxGeometry>
        </mxCell>
        <mxCell id="59dFEwwqqe-RQWfW4AhT-310" value="Репутационные, финансовые" style="rounded=1;whiteSpace=wrap;html=1;" vertex="1" parent="1">
          <mxGeometry x="1560" y="38.5" width="120" height="60" as="geometry" />
        </mxCell>
        <mxCell id="59dFEwwqqe-RQWfW4AhT-318" style="edgeStyle=orthogonalEdgeStyle;rounded=0;orthogonalLoop=1;jettySize=auto;html=1;exitX=0;exitY=0.5;exitDx=0;exitDy=0;entryX=0.693;entryY=0.998;entryDx=0;entryDy=0;entryPerimeter=0;" edge="1" parent="1" source="59dFEwwqqe-RQWfW4AhT-25" target="59dFEwwqqe-RQWfW4AhT-7">
          <mxGeometry relative="1" as="geometry" />
        </mxCell>
      </root>
    </mxGraphModel>
  </diagram>
</mxfile>
